<svg width="320" height="216" viewBox="0 0 320 216" fill="none" xmlns="http://www.w3.org/2000/svg">
<rect width="320" height="216" fill="white"/>
<g filter="url(#filter0_b_52_10975)">
<rect width="320" height="216" fill="#D2D5DB" fill-opacity="0.94"/>
</g>
<g filter="url(#filter1_d_52_10975)">
<rect x="2.99219" y="169" width="87.7653" height="42" rx="5" fill="#C6CCD2"/>
</g>
<path d="M37.3169 196H38.7232V184.727H37.3247L34.3247 186.883V188.367L37.1919 186.289H37.3169V196ZM41.661 196H48.9579V194.734H43.6141V194.609L46.1766 191.961C48.2157 189.859 48.7704 188.922 48.7704 187.633V187.617C48.7704 185.797 47.2625 184.461 45.2938 184.461C43.1375 184.461 41.5907 185.898 41.5829 187.898L41.5985 187.906L42.9422 187.914L42.95 187.898C42.95 186.57 43.8485 185.688 45.2 185.688C46.5282 185.688 47.3329 186.578 47.3329 187.766V187.781C47.3329 188.766 46.911 189.352 45.4735 190.906L41.661 195.031V196ZM54.8332 196.188C57.091 196.188 58.7472 194.797 58.7472 192.914V192.898C58.7472 191.297 57.63 190.273 55.9894 190.133V190.102C57.3957 189.805 58.38 188.852 58.38 187.461V187.445C58.38 185.734 56.966 184.539 54.8175 184.539C52.7082 184.539 51.255 185.766 51.0754 187.602L51.0675 187.68H52.4191L52.4269 187.602C52.5441 186.461 53.4894 185.758 54.8175 185.758C56.1925 185.758 56.966 186.438 56.966 187.617V187.633C56.966 188.758 56.0285 189.586 54.6847 189.586H53.3332V190.773H54.7472C56.3254 190.773 57.3175 191.547 57.3175 192.93V192.945C57.3175 194.141 56.3097 194.969 54.8332 194.969C53.3332 194.969 52.3097 194.203 52.2004 193.094L52.1925 193.016H50.841L50.8488 193.109C50.9972 194.891 52.505 196.188 54.8332 196.188Z" fill="black"/>
<g filter="url(#filter2_d_52_10975)">
<rect x="95.7441" y="169" width="129.509" height="42" rx="5" fill="white"/>
</g>
<path d="M141.223 195.148C143.137 195.148 144.598 194.109 144.598 192.609V192.594C144.598 191.391 143.832 190.703 142.246 190.32L140.949 190.008C139.957 189.766 139.535 189.406 139.535 188.836V188.82C139.535 188.078 140.27 187.562 141.27 187.562C142.285 187.562 142.942 188.023 143.121 188.688H144.457C144.27 187.312 143.043 186.43 141.278 186.43C139.488 186.43 138.145 187.484 138.145 188.883V188.891C138.145 190.102 138.856 190.789 140.434 191.164L141.738 191.477C142.778 191.727 143.207 192.125 143.207 192.695V192.711C143.207 193.477 142.403 194.016 141.27 194.016C140.192 194.016 139.52 193.555 139.293 192.852H137.903C138.059 194.242 139.348 195.148 141.223 195.148ZM146.387 197.812H147.747V193.672H147.872C148.333 194.57 149.34 195.148 150.497 195.148C152.637 195.148 154.028 193.438 154.028 190.797V190.781C154.028 188.156 152.629 186.43 150.497 186.43C149.325 186.43 148.387 186.984 147.872 187.922H147.747V186.578H146.387V197.812ZM150.184 193.945C148.653 193.945 147.715 192.742 147.715 190.797V190.781C147.715 188.836 148.653 187.633 150.184 187.633C151.723 187.633 152.637 188.82 152.637 190.781V190.797C152.637 192.758 151.723 193.945 150.184 193.945ZM158.145 195.148C159.278 195.148 160.161 194.656 160.692 193.758H160.817V195H162.177V189.234C162.177 187.484 161.028 186.43 158.973 186.43C157.177 186.43 155.895 187.32 155.677 188.641L155.669 188.688H157.028L157.036 188.664C157.255 188.008 157.919 187.633 158.927 187.633C160.184 187.633 160.817 188.195 160.817 189.234V190L158.403 190.148C156.442 190.266 155.333 191.133 155.333 192.633V192.648C155.333 194.18 156.544 195.148 158.145 195.148ZM156.723 192.617V192.602C156.723 191.766 157.286 191.312 158.567 191.234L160.817 191.094V191.859C160.817 193.062 159.809 193.969 158.427 193.969C157.45 193.969 156.723 193.469 156.723 192.617ZM167.786 195.148C169.81 195.148 170.943 194.062 171.286 192.539L171.302 192.453L169.958 192.461L169.943 192.508C169.63 193.445 168.911 193.945 167.778 193.945C166.278 193.945 165.31 192.703 165.31 190.766V190.75C165.31 188.852 166.263 187.633 167.778 187.633C168.989 187.633 169.739 188.305 169.95 189.133L169.958 189.156H171.31L171.302 189.109C171.052 187.609 169.825 186.43 167.778 186.43C165.419 186.43 163.919 188.133 163.919 190.75V190.766C163.919 193.438 165.427 195.148 167.786 195.148ZM176.412 195.148C178.396 195.148 179.599 194.023 179.888 192.883L179.904 192.82H178.544L178.513 192.891C178.287 193.398 177.583 193.938 176.443 193.938C174.943 193.938 173.982 192.922 173.943 191.18H180.005V190.648C180.005 188.133 178.615 186.43 176.326 186.43C174.037 186.43 172.552 188.211 172.552 190.812V190.82C172.552 193.461 174.005 195.148 176.412 195.148ZM176.318 187.641C177.56 187.641 178.482 188.43 178.623 190.094H173.966C174.115 188.492 175.068 187.641 176.318 187.641Z" fill="black"/>
<g filter="url(#filter3_i_52_10975)">
<rect x="230" y="169" width="87" height="42" rx="5" fill="#007AFF"/>
</g>
<path d="M255.769 195H262.612V193.734H257.175V183.727H255.769V195ZM266.683 195.148C267.816 195.148 268.699 194.656 269.23 193.758H269.355V195H270.714V189.234C270.714 187.484 269.566 186.43 267.511 186.43C265.714 186.43 264.433 187.32 264.214 188.641L264.207 188.688H265.566L265.574 188.664C265.792 188.008 266.457 187.633 267.464 187.633C268.722 187.633 269.355 188.195 269.355 189.234V190L266.941 190.148C264.98 190.266 263.871 191.133 263.871 192.633V192.648C263.871 194.18 265.082 195.148 266.683 195.148ZM265.261 192.617V192.602C265.261 191.766 265.824 191.312 267.105 191.234L269.355 191.094V191.859C269.355 193.062 268.347 193.969 266.964 193.969C265.988 193.969 265.261 193.469 265.261 192.617ZM277.066 195.148C279.199 195.148 280.597 193.422 280.597 190.797V190.781C280.597 188.141 279.207 186.43 277.066 186.43C275.91 186.43 274.902 187.008 274.441 187.906H274.316V183.234H272.957V195H274.316V193.656H274.441C274.957 194.594 275.894 195.148 277.066 195.148ZM276.754 193.945C275.222 193.945 274.285 192.742 274.285 190.797V190.781C274.285 188.836 275.222 187.633 276.754 187.633C278.293 187.633 279.207 188.82 279.207 190.781V190.797C279.207 192.758 278.293 193.945 276.754 193.945ZM285.824 195.148C287.809 195.148 289.012 194.023 289.301 192.883L289.317 192.82H287.957L287.926 192.891C287.699 193.398 286.996 193.938 285.856 193.938C284.356 193.938 283.395 192.922 283.356 191.18H289.418V190.648C289.418 188.133 288.028 186.43 285.738 186.43C283.449 186.43 281.965 188.211 281.965 190.812V190.82C281.965 193.461 283.418 195.148 285.824 195.148ZM285.731 187.641C286.973 187.641 287.895 188.43 288.035 190.094H283.379C283.528 188.492 284.481 187.641 285.731 187.641ZM291.286 195H292.645V183.234H291.286V195Z" fill="white"/>
<g filter="url(#filter4_d_52_10975)">
<path fill-rule="evenodd" clip-rule="evenodd" d="M294.827 9H312.747C315.593 9 317.44 11.1639 317.44 14.5V45.5C317.44 48.8361 315.593 51 312.747 51H294.827C291.98 51 290.133 48.8361 290.133 45.5V14.5C290.133 11.1639 291.98 9 294.827 9Z" fill="white"/>
</g>
<g filter="url(#filter5_d_52_10975)">
<path fill-rule="evenodd" clip-rule="evenodd" d="M263.253 9H281.173C284.02 9 285.867 11.1639 285.867 14.5V45.5C285.867 48.8361 284.02 51 281.173 51H263.253C260.407 51 258.56 48.8361 258.56 45.5V14.5C258.56 11.1639 260.407 9 263.253 9Z" fill="white"/>
</g>
<g filter="url(#filter6_d_52_10975)">
<path fill-rule="evenodd" clip-rule="evenodd" d="M230.827 9H248.747C251.593 9 253.44 11.1639 253.44 14.5V45.5C253.44 48.8361 251.593 51 248.747 51H230.827C227.98 51 226.133 48.8361 226.133 45.5V14.5C226.133 11.1639 227.98 9 230.827 9Z" fill="white"/>
</g>
<g filter="url(#filter7_d_52_10975)">
<path fill-rule="evenodd" clip-rule="evenodd" d="M199.253 9H217.173C220.02 9 221.867 11.1639 221.867 14.5V45.5C221.867 48.8361 220.02 51 217.173 51H199.253C196.407 51 194.56 48.8361 194.56 45.5V14.5C194.56 11.1639 196.407 9 199.253 9Z" fill="white"/>
</g>
<g filter="url(#filter8_d_52_10975)">
<path fill-rule="evenodd" clip-rule="evenodd" d="M167.253 9H185.173C187.076 9 188.569 9.88586 189.44 11.4089V49.5911C189.12 50.151 188.715 50.6247 188.238 51H164.189C162.889 49.979 162.133 48.2294 162.133 46V15C162.133 11.3606 164.148 9 167.253 9Z" fill="white"/>
</g>
<g filter="url(#filter9_d_52_10975)">
<path fill-rule="evenodd" clip-rule="evenodd" d="M135.253 9H153.173C156.02 9 157.867 11.1639 157.867 14.5V45.5C157.867 48.8361 156.02 51 153.173 51H135.253C132.407 51 130.56 48.8361 130.56 45.5V14.5C130.56 11.1639 132.407 9 135.253 9Z" fill="white"/>
</g>
<g filter="url(#filter10_d_52_10975)">
<path fill-rule="evenodd" clip-rule="evenodd" d="M102.827 9H120.747C123.593 9 125.44 11.1639 125.44 14.5V45.5C125.44 48.8361 123.593 51 120.747 51H102.827C99.9798 51 98.1333 48.8361 98.1333 45.5V14.5C98.1333 11.1639 99.9798 9 102.827 9Z" fill="white"/>
</g>
<g filter="url(#filter11_d_52_10975)">
<path fill-rule="evenodd" clip-rule="evenodd" d="M71.2534 9H89.1734C92.0202 9 93.8667 11.1639 93.8667 14.5V45.5C93.8667 48.8361 92.0202 51 89.1734 51H71.2534C68.4066 51 66.5601 48.8361 66.5601 45.5V14.5C66.5601 11.1639 68.4066 9 71.2534 9Z" fill="white"/>
</g>
<g filter="url(#filter12_d_52_10975)">
<path fill-rule="evenodd" clip-rule="evenodd" d="M38.8266 9H56.7466C59.5934 9 61.44 11.1639 61.44 14.5V45.5C61.44 48.8361 59.5934 51 56.7466 51H38.8266C35.9798 51 34.1333 48.8361 34.1333 45.5V14.5C34.1333 11.1639 35.9798 9 38.8266 9Z" fill="white"/>
</g>
<g filter="url(#filter13_d_52_10975)">
<path fill-rule="evenodd" clip-rule="evenodd" d="M7.25339 9H25.1734C28.0202 9 29.8667 11.1639 29.8667 14.5V45.5C29.8667 48.8361 28.0202 51 25.1734 51H7.25339C4.4066 51 2.56006 48.8361 2.56006 45.5V14.5C2.56006 11.1639 4.4066 9 7.25339 9Z" fill="white"/>
</g>
<path d="M297.737 38H299.759V32.2163H303.51C306.553 32.2163 308.709 30.0713 308.709 26.9941V26.9717C308.709 23.8945 306.553 21.7944 303.51 21.7944H297.737V38ZM302.993 23.5913C305.307 23.5913 306.643 24.8604 306.643 26.9941V27.0166C306.643 29.1504 305.307 30.4194 302.993 30.4194H299.759V23.5913H302.993Z" fill="#191919"/>
<path d="M272.471 38.2695C277.064 38.2695 279.928 35.0464 279.928 29.9028V29.8804C279.928 24.748 277.053 21.5249 272.471 21.5249C267.878 21.5249 264.992 24.748 264.992 29.8804V29.9028C264.992 35.0464 267.867 38.2695 272.471 38.2695ZM272.471 36.4053C269.147 36.4053 267.058 33.8896 267.058 29.9028V29.8804C267.058 25.8936 269.158 23.3892 272.471 23.3892C275.773 23.3892 277.862 25.9048 277.862 29.8804V29.9028C277.862 33.856 275.807 36.4053 272.471 36.4053Z" fill="#191919"/>
<path d="M238.216 38H240.237V21.7944H238.216V38Z" fill="#191919"/>
<path d="M208.471 38.2695C212.492 38.2695 214.895 35.8438 214.895 32.3174V21.7944H212.874V32.1826C212.874 34.6758 211.279 36.4053 208.471 36.4053C205.664 36.4053 204.046 34.6758 204.046 32.1826V21.7944H202.025V32.3174C202.025 35.8438 204.451 38.2695 208.471 38.2695Z" fill="#191919"/>
<path d="M174.876 38H176.897V31.0259L182.647 21.7944H180.345L175.92 29.0718H175.853L171.428 21.7944H169.126L174.876 31.0259V38Z" fill="#191919"/>
<path d="M142.229 38H144.251V23.6138H149.361V21.7944H137.12V23.6138H142.229V38Z" fill="#191919"/>
<path d="M105.49 38H107.512V31.5874H111.386L114.856 38H117.226L113.475 31.2729C115.497 30.6328 116.732 28.8921 116.732 26.646V26.6235C116.732 23.7036 114.688 21.7944 111.566 21.7944H105.49V38ZM107.512 29.8018V23.5913H111.296C113.374 23.5913 114.643 24.7368 114.643 26.6685V26.6909C114.643 28.6787 113.464 29.8018 111.386 29.8018H107.512Z" fill="#191919"/>
<path d="M75.3823 38H85.4224V36.1807H77.4038V30.6104H85.0068V28.8135H77.4038V23.6138H85.4224V21.7944H75.3823V38Z" fill="#191919"/>
<path d="M41.6948 38H43.604L47.3774 25.0176H47.4224L51.1958 38H53.105L57.5186 21.7944H55.4072L52.1392 35.1025H52.0942L48.4219 21.7944H46.3779L42.7056 35.1025H42.6606L39.3926 21.7944H37.2812L41.6948 38Z" fill="#191919"/>
<path d="M16.4712 38.2695C17.5269 38.2695 18.5039 38.1011 19.3687 37.7642L20.8623 39.8306H23.1309L20.9858 36.877C22.8613 35.4619 23.9282 33.0474 23.9282 29.9028V29.8804C23.9282 24.748 21.0532 21.5249 16.4712 21.5249C11.8779 21.5249 8.9917 24.748 8.9917 29.8804V29.9028C8.9917 35.0464 11.8667 38.2695 16.4712 38.2695ZM16.4712 36.4053C13.147 36.4053 11.0693 33.8896 11.0693 29.9028V29.8804C11.0693 25.8936 13.1582 23.3892 16.4712 23.3892C19.7729 23.3892 21.8506 25.9048 21.8506 29.8804V29.9028C21.8506 32.2725 21.1094 34.1479 19.8066 35.2598L18.4253 33.3618H16.1567L18.1895 36.147C17.6616 36.3154 17.0889 36.4053 16.4712 36.4053Z" fill="#191919"/>
<g filter="url(#filter14_d_52_10975)">
<path fill-rule="evenodd" clip-rule="evenodd" d="M279.467 63H297.387C300.234 63 302.08 65.1639 302.08 68.5V99.5C302.08 102.836 300.234 105 297.387 105H279.467C276.62 105 274.773 102.836 274.773 99.5V68.5C274.773 65.1639 276.62 63 279.467 63Z" fill="white"/>
</g>
<g filter="url(#filter15_d_52_10975)">
<path fill-rule="evenodd" clip-rule="evenodd" d="M247.04 63H264.96C267.807 63 269.653 65.1639 269.653 68.5V99.5C269.653 102.836 267.807 105 264.96 105H247.04C244.193 105 242.347 102.836 242.347 99.5V68.5C242.347 65.1639 244.193 63 247.04 63Z" fill="white"/>
</g>
<g filter="url(#filter16_d_52_10975)">
<path fill-rule="evenodd" clip-rule="evenodd" d="M215.467 63H233.387C236.234 63 238.08 65.1639 238.08 68.5V99.5C238.08 102.836 236.234 105 233.387 105H215.467C212.62 105 210.773 102.836 210.773 99.5V68.5C210.773 65.1639 212.62 63 215.467 63Z" fill="white"/>
</g>
<g filter="url(#filter17_d_52_10975)">
<path fill-rule="evenodd" clip-rule="evenodd" d="M183.04 63H200.96C203.807 63 205.653 65.1639 205.653 68.5V99.5C205.653 102.836 203.807 105 200.96 105H183.04C180.193 105 178.347 102.836 178.347 99.5V68.5C178.347 65.1639 180.193 63 183.04 63Z" fill="white"/>
</g>
<g filter="url(#filter18_d_52_10975)">
<path fill-rule="evenodd" clip-rule="evenodd" d="M151.467 63H169.387C172.234 63 174.08 65.1639 174.08 68.5V99.5C174.08 102.836 172.234 105 169.387 105H151.467C148.62 105 146.773 102.836 146.773 99.5V68.5C146.773 65.1639 148.62 63 151.467 63Z" fill="white"/>
</g>
<g filter="url(#filter19_d_52_10975)">
<path fill-rule="evenodd" clip-rule="evenodd" d="M119.04 63H136.96C139.807 63 141.653 65.1639 141.653 68.5V99.5C141.653 102.836 139.807 105 136.96 105H119.04C116.193 105 114.347 102.836 114.347 99.5V68.5C114.347 65.1639 116.193 63 119.04 63Z" fill="white"/>
</g>
<g filter="url(#filter20_d_52_10975)">
<path fill-rule="evenodd" clip-rule="evenodd" d="M86.6133 63H104.533C107.38 63 109.227 65.1639 109.227 68.5V99.5C109.227 102.836 107.38 105 104.533 105H86.6133C83.7665 105 81.9199 102.836 81.9199 99.5V68.5C81.9199 65.1639 83.7665 63 86.6133 63Z" fill="white"/>
</g>
<g filter="url(#filter21_d_52_10975)">
<path fill-rule="evenodd" clip-rule="evenodd" d="M55.04 63H72.96C75.8068 63 77.6534 65.1639 77.6534 68.5V99.5C77.6534 102.836 75.8068 105 72.96 105H55.04C52.1932 105 50.3467 102.836 50.3467 99.5V68.5C50.3467 65.1639 52.1932 63 55.04 63Z" fill="white"/>
</g>
<g filter="url(#filter22_d_52_10975)">
<path fill-rule="evenodd" clip-rule="evenodd" d="M22.6133 63H40.5333C43.38 63 45.2266 65.1639 45.2266 68.5V99.5C45.2266 102.836 43.38 105 40.5333 105H22.6133C19.7665 105 17.9199 102.836 17.9199 99.5V68.5C17.9199 65.1639 19.7665 63 22.6133 63Z" fill="white"/>
</g>
<path d="M283.921 92.25H293.759V90.4307H285.943V76.0444H283.921V92.25Z" fill="#191919"/>
<path d="M250.266 92.25H252.287V86.5786L254.017 84.6807L259.778 92.25H262.361L255.432 83.2207L261.766 76.0444H259.228L252.354 83.9956H252.287V76.0444H250.266V92.25Z" fill="#191919"/>
<path d="M223.655 92.5195C226.654 92.5195 228.428 90.7002 228.428 87.6343V76.0444H226.407V87.6118C226.407 89.5884 225.441 90.6553 223.644 90.6553C222.038 90.6553 221.241 89.6333 221.117 88.4092L221.106 88.2969H219.084L219.096 88.4541C219.264 90.7788 220.848 92.5195 223.655 92.5195Z" fill="#191919"/>
<path d="M185.778 92.25H187.799V84.8716H196.694V92.25H198.715V76.0444H196.694V83.0522H187.799V76.0444H185.778V92.25Z" fill="#191919"/>
<path d="M160.909 92.5195C165.233 92.5195 167.782 89.9253 167.782 85.5454V84.0068H161.19V85.7812H165.761V86.0732C165.761 88.791 163.784 90.6553 160.909 90.6553C157.607 90.6553 155.552 88.1396 155.552 84.063V84.0518C155.552 80.0537 157.574 77.6392 160.909 77.6392C163.189 77.6392 164.761 78.8184 165.514 80.8735L165.559 80.9971H167.681L167.625 80.7837C166.873 77.9199 164.638 75.7749 160.909 75.7749C156.383 75.7749 153.486 78.9868 153.486 84.0518V84.063C153.486 89.229 156.383 92.5195 160.909 92.5195Z" fill="#191919"/>
<path d="M123.45 92.25H125.471V85.231H132.647V83.4341H125.471V77.8638H133.288V76.0444H123.45V92.25Z" fill="#191919"/>
<path d="M88.5137 92.25H93.9604C98.7783 92.25 101.608 89.2515 101.608 84.1416V84.1191C101.608 79.0317 98.7559 76.0444 93.9604 76.0444H88.5137V92.25ZM90.5352 90.4307V77.8638H93.8257C97.498 77.8638 99.542 80.0986 99.542 84.1416V84.1641C99.542 88.1846 97.498 90.4307 93.8257 90.4307H90.5352Z" fill="#191919"/>
<path d="M63.0713 92.5195C66.7773 92.5195 69.0571 90.7002 69.0571 87.8252V87.814C69.0571 85.3433 67.6646 83.9956 64.3403 83.2656L62.5435 82.8726C60.4321 82.4121 59.4551 81.5811 59.4551 80.2559V80.2446C59.4551 78.6836 60.8701 77.6504 63.0376 77.6392C65.0928 77.6392 66.4741 78.6162 66.7212 80.2671L66.7437 80.4243H68.7651L68.7539 80.2559C68.5742 77.6055 66.2607 75.7749 63.0938 75.7749C59.7583 75.7749 57.3999 77.6392 57.3887 80.3008V80.312C57.3887 82.6816 58.8711 84.1079 62.0381 84.8042L63.835 85.1973C66.0586 85.6914 66.9907 86.4888 66.9907 87.915V87.9263C66.9907 89.5996 65.5195 90.6553 63.1836 90.6553C60.8364 90.6553 59.2642 89.6558 59.0283 88.0273L59.0059 87.8701H56.9844L56.9956 88.0273C57.1978 90.8013 59.5674 92.5195 63.0713 92.5195Z" fill="#191919"/>
<path d="M24.6431 92.25H26.7656L28.4053 87.6118H34.9302L36.5698 92.25H38.6924L32.6729 76.0444H30.6738L24.6431 92.25ZM31.6509 78.4702H31.6958L34.3237 85.8936H29.0229L31.6509 78.4702Z" fill="#191919"/>
<g filter="url(#filter23_d_52_10975)">
<path fill-rule="evenodd" clip-rule="evenodd" d="M247.04 117H264.96C267.807 117 269.653 119.164 269.653 122.5V153.5C269.653 156.836 267.807 159 264.96 159H247.04C244.193 159 242.347 156.836 242.347 153.5V122.5C242.347 119.164 244.193 117 247.04 117Z" fill="white"/>
</g>
<g filter="url(#filter24_d_52_10975)">
<path fill-rule="evenodd" clip-rule="evenodd" d="M215.467 117H233.387C236.234 117 238.08 119.164 238.08 122.5V153.5C238.08 156.836 236.234 159 233.387 159H215.467C212.62 159 210.773 156.836 210.773 153.5V122.5C210.773 119.164 212.62 117 215.467 117Z" fill="white"/>
</g>
<g filter="url(#filter25_d_52_10975)">
<path fill-rule="evenodd" clip-rule="evenodd" d="M183.04 117H200.96C203.807 117 205.653 119.164 205.653 122.5V153.5C205.653 156.836 203.807 159 200.96 159H183.04C180.193 159 178.347 156.836 178.347 153.5V122.5C178.347 119.164 180.193 117 183.04 117Z" fill="white"/>
</g>
<g filter="url(#filter26_d_52_10975)">
<path fill-rule="evenodd" clip-rule="evenodd" d="M151.467 117H169.387C172.234 117 174.08 119.164 174.08 122.5V153.5C174.08 156.836 172.234 159 169.387 159H151.467C148.62 159 146.773 156.836 146.773 153.5V122.5C146.773 119.164 148.62 117 151.467 117Z" fill="white"/>
</g>
<g filter="url(#filter27_d_52_10975)">
<path fill-rule="evenodd" clip-rule="evenodd" d="M119.04 117H136.96C139.807 117 141.653 119.164 141.653 122.5V153.5C141.653 156.836 139.807 159 136.96 159H119.04C116.193 159 114.347 156.836 114.347 153.5V122.5C114.347 119.164 116.193 117 119.04 117Z" fill="white"/>
</g>
<g filter="url(#filter28_d_52_10975)">
<path fill-rule="evenodd" clip-rule="evenodd" d="M87.4668 117H105.387C108.234 117 110.08 119.164 110.08 122.5V153.5C110.08 156.836 108.234 159 105.387 159H87.4668C84.62 159 82.7734 156.836 82.7734 153.5V122.5C82.7734 119.164 84.62 117 87.4668 117Z" fill="white"/>
</g>
<g filter="url(#filter29_d_52_10975)">
<path fill-rule="evenodd" clip-rule="evenodd" d="M55.04 117H72.96C75.8068 117 77.6534 119.164 77.6534 122.5V153.5C77.6534 156.836 75.8068 159 72.96 159H55.04C52.1932 159 50.3467 156.836 50.3467 153.5V122.5C50.3467 119.164 52.1932 117 55.04 117Z" fill="white"/>
</g>
<g filter="url(#filter30_d_52_10975)">
<path fill-rule="evenodd" clip-rule="evenodd" d="M8.5 117H38.5C41.8361 117 44 119.164 44 122.5V153.5C44 156.836 41.8361 159 38.5 159H8.5C5.16392 159 3 156.836 3 153.5V122.5C3 119.164 5.16392 117 8.5 117Z" fill="white"/>
</g>
<path fill-rule="evenodd" clip-rule="evenodd" d="M24.2393 130.293C23.8498 129.903 23.2198 129.902 22.8288 130.293L14.4501 138.671C13.668 139.453 13.9323 140.087 15.0319 140.087H19.034V145.097C19.034 145.644 19.4803 146.087 20.0316 146.087H27.0365C27.5874 146.087 28.034 145.636 28.034 145.097V140.087H32.0361C33.1395 140.087 33.4008 139.454 32.6179 138.671L24.2393 130.293Z" fill="black"/>
<path d="M247.482 146.25H249.369V133.728H249.436L254.613 146.25H256.32L261.498 133.728H261.565V146.25H263.452V130.044H261.116L255.5 143.701H255.433L249.818 130.044H247.482V146.25Z" fill="black"/>
<path d="M218.205 146.25H220.204V133.458H220.26L229.177 146.25H231.142V130.044H229.143V142.836H229.087L220.17 130.044H218.205V146.25Z" fill="black"/>
<path d="M185.647 146.25H191.768C195.216 146.25 197.26 144.554 197.26 141.702V141.679C197.26 139.534 195.845 137.962 193.509 137.692V137.647C195.182 137.412 196.44 135.783 196.44 134.11V134.087C196.44 131.662 194.564 130.044 191.791 130.044H185.647V146.25ZM191.33 131.83C193.284 131.83 194.396 132.706 194.396 134.301V134.323C194.396 136.075 193.093 137.03 190.701 137.03H187.669V131.83H191.33ZM191.274 138.771C193.857 138.771 195.182 139.725 195.182 141.601V141.623C195.182 143.487 193.891 144.464 191.465 144.464H187.669V138.771H191.274Z" fill="black"/>
<path d="M159.57 146.25H161.569L167.543 130.044H165.421L160.592 143.824H160.547L155.718 130.044H153.595L159.57 146.25Z" fill="black"/>
<path d="M127.623 146.52C131.014 146.52 133.608 144.509 134.226 141.41L134.249 141.297H132.205L132.171 141.398C131.463 143.532 129.891 144.655 127.623 144.655C124.399 144.655 122.299 142.083 122.299 138.142V138.13C122.299 134.188 124.388 131.639 127.623 131.639C129.902 131.639 131.497 132.785 132.126 134.75L132.205 134.997H134.249L134.226 134.885C133.608 131.819 130.992 129.775 127.623 129.775C123.108 129.775 120.222 133.032 120.222 138.13V138.142C120.222 143.24 123.119 146.52 127.623 146.52Z" fill="black"/>
<path d="M89.7324 146.25H92.0234L96.3921 139.781H96.4595L100.772 146.25H103.198L97.7173 138.209V138.164L103.321 130.044H101.019L96.6392 136.569H96.5718L92.2368 130.044H89.7998L95.2578 138.063V138.108L89.7324 146.25Z" fill="black"/>
<path d="M58.103 146.25H70.0859V144.431H60.6748V144.386L69.895 131.482V130.044H58.4175V131.864H67.3682V131.909L58.103 144.812V146.25Z" fill="black"/>
<g filter="url(#filter31_d_52_10975)">
<path fill-rule="evenodd" clip-rule="evenodd" d="M280.5 117H311.5C314.836 117 317 119.164 317 122.5V153.5C317 156.836 314.836 159 311.5 159H280.5C277.164 159 275 156.836 275 153.5V122.5C275 119.164 277.164 117 280.5 117Z" fill="#C6CCD2"/>
</g>
<path fill-rule="evenodd" clip-rule="evenodd" d="M285.436 139.559C284.851 138.974 284.858 138.019 285.436 137.441L292.167 130.71C292.559 130.318 293.326 130 293.884 130H304.379C306.311 130 307.877 131.569 307.877 133.502V143.498C307.877 145.432 306.3 147 304.379 147H293.884C293.328 147 292.554 146.677 292.167 146.29L285.436 139.559ZM300.019 138.478L302.844 135.654C303.137 135.36 303.141 134.881 302.848 134.589C302.553 134.294 302.078 134.298 301.783 134.593L298.959 137.417L296.135 134.593C295.841 134.3 295.363 134.296 295.07 134.589C294.775 134.884 294.779 135.358 295.074 135.654L297.898 138.478L295.074 141.302C294.781 141.595 294.777 142.074 295.07 142.367C295.365 142.662 295.839 142.658 296.135 142.362L298.959 139.538L301.783 142.362C302.076 142.656 302.555 142.66 302.848 142.367C303.143 142.072 303.139 141.597 302.844 141.302L300.019 138.478ZM287.087 139.21C286.695 138.818 286.696 138.181 287.087 137.79L293.02 131.857C293.217 131.66 293.602 131.5 293.871 131.5H304.374C305.48 131.5 306.377 132.397 306.377 133.506V143.494C306.377 144.602 305.483 145.5 304.374 145.5H293.871C293.598 145.5 293.217 145.341 293.02 145.143L287.087 139.21Z" fill="black"/>
<defs>
<filter id="filter0_b_52_10975" x="-27.1828" y="-27.1828" width="374.366" height="270.366"  color-interpolation-filters="sRGB">
<feFlood flood-opacity="0" result="BackgroundImageFix"/>
<feGaussianBlur in="BackgroundImage" stdDeviation="13.5914"/>
<feComposite in2="SourceAlpha" operator="in" result="effect1_backgroundBlur_52_10975"/>
<feBlend  in="SourceGraphic" in2="effect1_backgroundBlur_52_10975" result="shape"/>
</filter>
<filter id="filter1_d_52_10975" x="2.99219" y="169" width="87.7651" height="43"  color-interpolation-filters="sRGB">
<feFlood flood-opacity="0" result="BackgroundImageFix"/>
<feColorMatrix in="SourceAlpha"  values="0 0 0 0 0 0 0 0 0 0 0 0 0 0 0 0 0 0 127 0" result="hardAlpha"/>
<feOffset dy="1"/>
<feColorMatrix  values="0 0 0 0 0 0 0 0 0 0 0 0 0 0 0 0 0 0 0.35 0"/>
<feBlend  in2="BackgroundImageFix" result="effect1_dropShadow_52_10975"/>
<feBlend  in="SourceGraphic" in2="effect1_dropShadow_52_10975" result="shape"/>
</filter>
<filter id="filter2_d_52_10975" x="95.7441" y="169" width="129.509" height="43"  color-interpolation-filters="sRGB">
<feFlood flood-opacity="0" result="BackgroundImageFix"/>
<feColorMatrix in="SourceAlpha"  values="0 0 0 0 0 0 0 0 0 0 0 0 0 0 0 0 0 0 127 0" result="hardAlpha"/>
<feOffset dy="1"/>
<feColorMatrix  values="0 0 0 0 0 0 0 0 0 0 0 0 0 0 0 0 0 0 0.35 0"/>
<feBlend  in2="BackgroundImageFix" result="effect1_dropShadow_52_10975"/>
<feBlend  in="SourceGraphic" in2="effect1_dropShadow_52_10975" result="shape"/>
</filter>
<filter id="filter3_i_52_10975" x="230" y="169" width="87" height="42"  color-interpolation-filters="sRGB">
<feFlood flood-opacity="0" result="BackgroundImageFix"/>
<feBlend  in="SourceGraphic" in2="BackgroundImageFix" result="shape"/>
<feColorMatrix in="SourceAlpha"  values="0 0 0 0 0 0 0 0 0 0 0 0 0 0 0 0 0 0 127 0" result="hardAlpha"/>
<feOffset dy="-1"/>
<feComposite in2="hardAlpha" operator="arithmetic" k2="-1" k3="1"/>
<feColorMatrix  values="0 0 0 0 0 0 0 0 0 0 0 0 0 0 0 0 0 0 0.35 0"/>
<feBlend  in2="shape" result="effect1_innerShadow_52_10975"/>
</filter>
<filter id="filter4_d_52_10975" x="290.133" y="9" width="27.3066" height="43"  color-interpolation-filters="sRGB">
<feFlood flood-opacity="0" result="BackgroundImageFix"/>
<feColorMatrix in="SourceAlpha"  values="0 0 0 0 0 0 0 0 0 0 0 0 0 0 0 0 0 0 127 0" result="hardAlpha"/>
<feOffset dy="1"/>
<feColorMatrix  values="0 0 0 0 0 0 0 0 0 0 0 0 0 0 0 0 0 0 0.35 0"/>
<feBlend  in2="BackgroundImageFix" result="effect1_dropShadow_52_10975"/>
<feBlend  in="SourceGraphic" in2="effect1_dropShadow_52_10975" result="shape"/>
</filter>
<filter id="filter5_d_52_10975" x="258.56" y="9" width="27.3066" height="43"  color-interpolation-filters="sRGB">
<feFlood flood-opacity="0" result="BackgroundImageFix"/>
<feColorMatrix in="SourceAlpha"  values="0 0 0 0 0 0 0 0 0 0 0 0 0 0 0 0 0 0 127 0" result="hardAlpha"/>
<feOffset dy="1"/>
<feColorMatrix  values="0 0 0 0 0 0 0 0 0 0 0 0 0 0 0 0 0 0 0.35 0"/>
<feBlend  in2="BackgroundImageFix" result="effect1_dropShadow_52_10975"/>
<feBlend  in="SourceGraphic" in2="effect1_dropShadow_52_10975" result="shape"/>
</filter>
<filter id="filter6_d_52_10975" x="226.133" y="9" width="27.3066" height="43"  color-interpolation-filters="sRGB">
<feFlood flood-opacity="0" result="BackgroundImageFix"/>
<feColorMatrix in="SourceAlpha"  values="0 0 0 0 0 0 0 0 0 0 0 0 0 0 0 0 0 0 127 0" result="hardAlpha"/>
<feOffset dy="1"/>
<feColorMatrix  values="0 0 0 0 0 0 0 0 0 0 0 0 0 0 0 0 0 0 0.35 0"/>
<feBlend  in2="BackgroundImageFix" result="effect1_dropShadow_52_10975"/>
<feBlend  in="SourceGraphic" in2="effect1_dropShadow_52_10975" result="shape"/>
</filter>
<filter id="filter7_d_52_10975" x="194.56" y="9" width="27.3066" height="43"  color-interpolation-filters="sRGB">
<feFlood flood-opacity="0" result="BackgroundImageFix"/>
<feColorMatrix in="SourceAlpha"  values="0 0 0 0 0 0 0 0 0 0 0 0 0 0 0 0 0 0 127 0" result="hardAlpha"/>
<feOffset dy="1"/>
<feColorMatrix  values="0 0 0 0 0 0 0 0 0 0 0 0 0 0 0 0 0 0 0.35 0"/>
<feBlend  in2="BackgroundImageFix" result="effect1_dropShadow_52_10975"/>
<feBlend  in="SourceGraphic" in2="effect1_dropShadow_52_10975" result="shape"/>
</filter>
<filter id="filter8_d_52_10975" x="162.133" y="9" width="27.3066" height="43"  color-interpolation-filters="sRGB">
<feFlood flood-opacity="0" result="BackgroundImageFix"/>
<feColorMatrix in="SourceAlpha"  values="0 0 0 0 0 0 0 0 0 0 0 0 0 0 0 0 0 0 127 0" result="hardAlpha"/>
<feOffset dy="1"/>
<feColorMatrix  values="0 0 0 0 0 0 0 0 0 0 0 0 0 0 0 0 0 0 0.35 0"/>
<feBlend  in2="BackgroundImageFix" result="effect1_dropShadow_52_10975"/>
<feBlend  in="SourceGraphic" in2="effect1_dropShadow_52_10975" result="shape"/>
</filter>
<filter id="filter9_d_52_10975" x="130.56" y="9" width="27.3066" height="43"  color-interpolation-filters="sRGB">
<feFlood flood-opacity="0" result="BackgroundImageFix"/>
<feColorMatrix in="SourceAlpha"  values="0 0 0 0 0 0 0 0 0 0 0 0 0 0 0 0 0 0 127 0" result="hardAlpha"/>
<feOffset dy="1"/>
<feColorMatrix  values="0 0 0 0 0 0 0 0 0 0 0 0 0 0 0 0 0 0 0.35 0"/>
<feBlend  in2="BackgroundImageFix" result="effect1_dropShadow_52_10975"/>
<feBlend  in="SourceGraphic" in2="effect1_dropShadow_52_10975" result="shape"/>
</filter>
<filter id="filter10_d_52_10975" x="98.1333" y="9" width="27.3066" height="43"  color-interpolation-filters="sRGB">
<feFlood flood-opacity="0" result="BackgroundImageFix"/>
<feColorMatrix in="SourceAlpha"  values="0 0 0 0 0 0 0 0 0 0 0 0 0 0 0 0 0 0 127 0" result="hardAlpha"/>
<feOffset dy="1"/>
<feColorMatrix  values="0 0 0 0 0 0 0 0 0 0 0 0 0 0 0 0 0 0 0.35 0"/>
<feBlend  in2="BackgroundImageFix" result="effect1_dropShadow_52_10975"/>
<feBlend  in="SourceGraphic" in2="effect1_dropShadow_52_10975" result="shape"/>
</filter>
<filter id="filter11_d_52_10975" x="66.5601" y="9" width="27.3066" height="43"  color-interpolation-filters="sRGB">
<feFlood flood-opacity="0" result="BackgroundImageFix"/>
<feColorMatrix in="SourceAlpha"  values="0 0 0 0 0 0 0 0 0 0 0 0 0 0 0 0 0 0 127 0" result="hardAlpha"/>
<feOffset dy="1"/>
<feColorMatrix  values="0 0 0 0 0 0 0 0 0 0 0 0 0 0 0 0 0 0 0.35 0"/>
<feBlend  in2="BackgroundImageFix" result="effect1_dropShadow_52_10975"/>
<feBlend  in="SourceGraphic" in2="effect1_dropShadow_52_10975" result="shape"/>
</filter>
<filter id="filter12_d_52_10975" x="34.1333" y="9" width="27.3066" height="43"  color-interpolation-filters="sRGB">
<feFlood flood-opacity="0" result="BackgroundImageFix"/>
<feColorMatrix in="SourceAlpha"  values="0 0 0 0 0 0 0 0 0 0 0 0 0 0 0 0 0 0 127 0" result="hardAlpha"/>
<feOffset dy="1"/>
<feColorMatrix  values="0 0 0 0 0 0 0 0 0 0 0 0 0 0 0 0 0 0 0.35 0"/>
<feBlend  in2="BackgroundImageFix" result="effect1_dropShadow_52_10975"/>
<feBlend  in="SourceGraphic" in2="effect1_dropShadow_52_10975" result="shape"/>
</filter>
<filter id="filter13_d_52_10975" x="2.56006" y="9" width="27.3066" height="43"  color-interpolation-filters="sRGB">
<feFlood flood-opacity="0" result="BackgroundImageFix"/>
<feColorMatrix in="SourceAlpha"  values="0 0 0 0 0 0 0 0 0 0 0 0 0 0 0 0 0 0 127 0" result="hardAlpha"/>
<feOffset dy="1"/>
<feColorMatrix  values="0 0 0 0 0 0 0 0 0 0 0 0 0 0 0 0 0 0 0.35 0"/>
<feBlend  in2="BackgroundImageFix" result="effect1_dropShadow_52_10975"/>
<feBlend  in="SourceGraphic" in2="effect1_dropShadow_52_10975" result="shape"/>
</filter>
<filter id="filter14_d_52_10975" x="274.773" y="63" width="27.3066" height="43"  color-interpolation-filters="sRGB">
<feFlood flood-opacity="0" result="BackgroundImageFix"/>
<feColorMatrix in="SourceAlpha"  values="0 0 0 0 0 0 0 0 0 0 0 0 0 0 0 0 0 0 127 0" result="hardAlpha"/>
<feOffset dy="1"/>
<feColorMatrix  values="0 0 0 0 0 0 0 0 0 0 0 0 0 0 0 0 0 0 0.35 0"/>
<feBlend  in2="BackgroundImageFix" result="effect1_dropShadow_52_10975"/>
<feBlend  in="SourceGraphic" in2="effect1_dropShadow_52_10975" result="shape"/>
</filter>
<filter id="filter15_d_52_10975" x="242.347" y="63" width="27.3066" height="43"  color-interpolation-filters="sRGB">
<feFlood flood-opacity="0" result="BackgroundImageFix"/>
<feColorMatrix in="SourceAlpha"  values="0 0 0 0 0 0 0 0 0 0 0 0 0 0 0 0 0 0 127 0" result="hardAlpha"/>
<feOffset dy="1"/>
<feColorMatrix  values="0 0 0 0 0 0 0 0 0 0 0 0 0 0 0 0 0 0 0.35 0"/>
<feBlend  in2="BackgroundImageFix" result="effect1_dropShadow_52_10975"/>
<feBlend  in="SourceGraphic" in2="effect1_dropShadow_52_10975" result="shape"/>
</filter>
<filter id="filter16_d_52_10975" x="210.773" y="63" width="27.3066" height="43"  color-interpolation-filters="sRGB">
<feFlood flood-opacity="0" result="BackgroundImageFix"/>
<feColorMatrix in="SourceAlpha"  values="0 0 0 0 0 0 0 0 0 0 0 0 0 0 0 0 0 0 127 0" result="hardAlpha"/>
<feOffset dy="1"/>
<feColorMatrix  values="0 0 0 0 0 0 0 0 0 0 0 0 0 0 0 0 0 0 0.35 0"/>
<feBlend  in2="BackgroundImageFix" result="effect1_dropShadow_52_10975"/>
<feBlend  in="SourceGraphic" in2="effect1_dropShadow_52_10975" result="shape"/>
</filter>
<filter id="filter17_d_52_10975" x="178.347" y="63" width="27.3066" height="43"  color-interpolation-filters="sRGB">
<feFlood flood-opacity="0" result="BackgroundImageFix"/>
<feColorMatrix in="SourceAlpha"  values="0 0 0 0 0 0 0 0 0 0 0 0 0 0 0 0 0 0 127 0" result="hardAlpha"/>
<feOffset dy="1"/>
<feColorMatrix  values="0 0 0 0 0 0 0 0 0 0 0 0 0 0 0 0 0 0 0.35 0"/>
<feBlend  in2="BackgroundImageFix" result="effect1_dropShadow_52_10975"/>
<feBlend  in="SourceGraphic" in2="effect1_dropShadow_52_10975" result="shape"/>
</filter>
<filter id="filter18_d_52_10975" x="146.773" y="63" width="27.3066" height="43"  color-interpolation-filters="sRGB">
<feFlood flood-opacity="0" result="BackgroundImageFix"/>
<feColorMatrix in="SourceAlpha"  values="0 0 0 0 0 0 0 0 0 0 0 0 0 0 0 0 0 0 127 0" result="hardAlpha"/>
<feOffset dy="1"/>
<feColorMatrix  values="0 0 0 0 0 0 0 0 0 0 0 0 0 0 0 0 0 0 0.35 0"/>
<feBlend  in2="BackgroundImageFix" result="effect1_dropShadow_52_10975"/>
<feBlend  in="SourceGraphic" in2="effect1_dropShadow_52_10975" result="shape"/>
</filter>
<filter id="filter19_d_52_10975" x="114.347" y="63" width="27.3066" height="43"  color-interpolation-filters="sRGB">
<feFlood flood-opacity="0" result="BackgroundImageFix"/>
<feColorMatrix in="SourceAlpha"  values="0 0 0 0 0 0 0 0 0 0 0 0 0 0 0 0 0 0 127 0" result="hardAlpha"/>
<feOffset dy="1"/>
<feColorMatrix  values="0 0 0 0 0 0 0 0 0 0 0 0 0 0 0 0 0 0 0.35 0"/>
<feBlend  in2="BackgroundImageFix" result="effect1_dropShadow_52_10975"/>
<feBlend  in="SourceGraphic" in2="effect1_dropShadow_52_10975" result="shape"/>
</filter>
<filter id="filter20_d_52_10975" x="81.9199" y="63" width="27.3066" height="43"  color-interpolation-filters="sRGB">
<feFlood flood-opacity="0" result="BackgroundImageFix"/>
<feColorMatrix in="SourceAlpha"  values="0 0 0 0 0 0 0 0 0 0 0 0 0 0 0 0 0 0 127 0" result="hardAlpha"/>
<feOffset dy="1"/>
<feColorMatrix  values="0 0 0 0 0 0 0 0 0 0 0 0 0 0 0 0 0 0 0.35 0"/>
<feBlend  in2="BackgroundImageFix" result="effect1_dropShadow_52_10975"/>
<feBlend  in="SourceGraphic" in2="effect1_dropShadow_52_10975" result="shape"/>
</filter>
<filter id="filter21_d_52_10975" x="50.3467" y="63" width="27.3066" height="43"  color-interpolation-filters="sRGB">
<feFlood flood-opacity="0" result="BackgroundImageFix"/>
<feColorMatrix in="SourceAlpha"  values="0 0 0 0 0 0 0 0 0 0 0 0 0 0 0 0 0 0 127 0" result="hardAlpha"/>
<feOffset dy="1"/>
<feColorMatrix  values="0 0 0 0 0 0 0 0 0 0 0 0 0 0 0 0 0 0 0.35 0"/>
<feBlend  in2="BackgroundImageFix" result="effect1_dropShadow_52_10975"/>
<feBlend  in="SourceGraphic" in2="effect1_dropShadow_52_10975" result="shape"/>
</filter>
<filter id="filter22_d_52_10975" x="17.9199" y="63" width="27.3066" height="43"  color-interpolation-filters="sRGB">
<feFlood flood-opacity="0" result="BackgroundImageFix"/>
<feColorMatrix in="SourceAlpha"  values="0 0 0 0 0 0 0 0 0 0 0 0 0 0 0 0 0 0 127 0" result="hardAlpha"/>
<feOffset dy="1"/>
<feColorMatrix  values="0 0 0 0 0 0 0 0 0 0 0 0 0 0 0 0 0 0 0.35 0"/>
<feBlend  in2="BackgroundImageFix" result="effect1_dropShadow_52_10975"/>
<feBlend  in="SourceGraphic" in2="effect1_dropShadow_52_10975" result="shape"/>
</filter>
<filter id="filter23_d_52_10975" x="242.347" y="117" width="27.3066" height="43"  color-interpolation-filters="sRGB">
<feFlood flood-opacity="0" result="BackgroundImageFix"/>
<feColorMatrix in="SourceAlpha"  values="0 0 0 0 0 0 0 0 0 0 0 0 0 0 0 0 0 0 127 0" result="hardAlpha"/>
<feOffset dy="1"/>
<feColorMatrix  values="0 0 0 0 0 0 0 0 0 0 0 0 0 0 0 0 0 0 0.35 0"/>
<feBlend  in2="BackgroundImageFix" result="effect1_dropShadow_52_10975"/>
<feBlend  in="SourceGraphic" in2="effect1_dropShadow_52_10975" result="shape"/>
</filter>
<filter id="filter24_d_52_10975" x="210.773" y="117" width="27.3066" height="43"  color-interpolation-filters="sRGB">
<feFlood flood-opacity="0" result="BackgroundImageFix"/>
<feColorMatrix in="SourceAlpha"  values="0 0 0 0 0 0 0 0 0 0 0 0 0 0 0 0 0 0 127 0" result="hardAlpha"/>
<feOffset dy="1"/>
<feColorMatrix  values="0 0 0 0 0 0 0 0 0 0 0 0 0 0 0 0 0 0 0.35 0"/>
<feBlend  in2="BackgroundImageFix" result="effect1_dropShadow_52_10975"/>
<feBlend  in="SourceGraphic" in2="effect1_dropShadow_52_10975" result="shape"/>
</filter>
<filter id="filter25_d_52_10975" x="178.347" y="117" width="27.3066" height="43"  color-interpolation-filters="sRGB">
<feFlood flood-opacity="0" result="BackgroundImageFix"/>
<feColorMatrix in="SourceAlpha"  values="0 0 0 0 0 0 0 0 0 0 0 0 0 0 0 0 0 0 127 0" result="hardAlpha"/>
<feOffset dy="1"/>
<feColorMatrix  values="0 0 0 0 0 0 0 0 0 0 0 0 0 0 0 0 0 0 0.35 0"/>
<feBlend  in2="BackgroundImageFix" result="effect1_dropShadow_52_10975"/>
<feBlend  in="SourceGraphic" in2="effect1_dropShadow_52_10975" result="shape"/>
</filter>
<filter id="filter26_d_52_10975" x="146.773" y="117" width="27.3066" height="43"  color-interpolation-filters="sRGB">
<feFlood flood-opacity="0" result="BackgroundImageFix"/>
<feColorMatrix in="SourceAlpha"  values="0 0 0 0 0 0 0 0 0 0 0 0 0 0 0 0 0 0 127 0" result="hardAlpha"/>
<feOffset dy="1"/>
<feColorMatrix  values="0 0 0 0 0 0 0 0 0 0 0 0 0 0 0 0 0 0 0.35 0"/>
<feBlend  in2="BackgroundImageFix" result="effect1_dropShadow_52_10975"/>
<feBlend  in="SourceGraphic" in2="effect1_dropShadow_52_10975" result="shape"/>
</filter>
<filter id="filter27_d_52_10975" x="114.347" y="117" width="27.3066" height="43"  color-interpolation-filters="sRGB">
<feFlood flood-opacity="0" result="BackgroundImageFix"/>
<feColorMatrix in="SourceAlpha"  values="0 0 0 0 0 0 0 0 0 0 0 0 0 0 0 0 0 0 127 0" result="hardAlpha"/>
<feOffset dy="1"/>
<feColorMatrix  values="0 0 0 0 0 0 0 0 0 0 0 0 0 0 0 0 0 0 0.35 0"/>
<feBlend  in2="BackgroundImageFix" result="effect1_dropShadow_52_10975"/>
<feBlend  in="SourceGraphic" in2="effect1_dropShadow_52_10975" result="shape"/>
</filter>
<filter id="filter28_d_52_10975" x="82.7734" y="117" width="27.3066" height="43"  color-interpolation-filters="sRGB">
<feFlood flood-opacity="0" result="BackgroundImageFix"/>
<feColorMatrix in="SourceAlpha"  values="0 0 0 0 0 0 0 0 0 0 0 0 0 0 0 0 0 0 127 0" result="hardAlpha"/>
<feOffset dy="1"/>
<feColorMatrix  values="0 0 0 0 0 0 0 0 0 0 0 0 0 0 0 0 0 0 0.35 0"/>
<feBlend  in2="BackgroundImageFix" result="effect1_dropShadow_52_10975"/>
<feBlend  in="SourceGraphic" in2="effect1_dropShadow_52_10975" result="shape"/>
</filter>
<filter id="filter29_d_52_10975" x="50.3467" y="117" width="27.3066" height="43"  color-interpolation-filters="sRGB">
<feFlood flood-opacity="0" result="BackgroundImageFix"/>
<feColorMatrix in="SourceAlpha"  values="0 0 0 0 0 0 0 0 0 0 0 0 0 0 0 0 0 0 127 0" result="hardAlpha"/>
<feOffset dy="1"/>
<feColorMatrix  values="0 0 0 0 0 0 0 0 0 0 0 0 0 0 0 0 0 0 0.35 0"/>
<feBlend  in2="BackgroundImageFix" result="effect1_dropShadow_52_10975"/>
<feBlend  in="SourceGraphic" in2="effect1_dropShadow_52_10975" result="shape"/>
</filter>
<filter id="filter30_d_52_10975" x="3" y="117" width="41" height="43"  color-interpolation-filters="sRGB">
<feFlood flood-opacity="0" result="BackgroundImageFix"/>
<feColorMatrix in="SourceAlpha"  values="0 0 0 0 0 0 0 0 0 0 0 0 0 0 0 0 0 0 127 0" result="hardAlpha"/>
<feOffset dy="1"/>
<feColorMatrix  values="0 0 0 0 0 0 0 0 0 0 0 0 0 0 0 0 0 0 0.35 0"/>
<feBlend  in2="BackgroundImageFix" result="effect1_dropShadow_52_10975"/>
<feBlend  in="SourceGraphic" in2="effect1_dropShadow_52_10975" result="shape"/>
</filter>
<filter id="filter31_d_52_10975" x="275" y="117" width="42" height="43"  color-interpolation-filters="sRGB">
<feFlood flood-opacity="0" result="BackgroundImageFix"/>
<feColorMatrix in="SourceAlpha"  values="0 0 0 0 0 0 0 0 0 0 0 0 0 0 0 0 0 0 127 0" result="hardAlpha"/>
<feOffset dy="1"/>
<feColorMatrix  values="0 0 0 0 0 0 0 0 0 0 0 0 0 0 0 0 0 0 0.35 0"/>
<feBlend  in2="BackgroundImageFix" result="effect1_dropShadow_52_10975"/>
<feBlend  in="SourceGraphic" in2="effect1_dropShadow_52_10975" result="shape"/>
</filter>
</defs>
</svg>
