<svg width="24" height="24" viewBox="0 0 24 24" fill="none" xmlns="http://www.w3.org/2000/svg">
<path d="M10.2624 6.55556L8.6624 8.11111H5.6V17.4444H18.4V8.11111H15.3376L13.7376 6.55556H10.2624ZM9.6 5H14.4L16 6.55556H19.2C19.4122 6.55556 19.6157 6.6375 19.7657 6.78336C19.9157 6.92922 20 7.12705 20 7.33333V18.2222C20 18.4285 19.9157 18.6263 19.7657 18.7722C19.6157 18.9181 19.4122 19 19.2 19H4.8C4.58783 19 4.38434 18.9181 4.23431 18.7722C4.08429 18.6263 4 18.4285 4 18.2222V7.33333C4 7.12705 4.08429 6.92922 4.23431 6.78336C4.38434 6.6375 4.58783 6.55556 4.8 6.55556H8L9.6 5ZM12 16.6667C10.833 16.6667 9.71389 16.216 8.88873 15.4137C8.06357 14.6115 7.6 13.5234 7.6 12.3889C7.6 11.2544 8.06357 10.1663 8.88873 9.36404C9.71389 8.5618 10.833 8.11111 12 8.11111C13.167 8.11111 14.2861 8.5618 15.1113 9.36404C15.9364 10.1663 16.4 11.2544 16.4 12.3889C16.4 13.5234 15.9364 14.6115 15.1113 15.4137C14.2861 16.216 13.167 16.6667 12 16.6667ZM12 15.1111C12.7426 15.1111 13.4548 14.8243 13.9799 14.3138C14.505 13.8033 14.8 13.1109 14.8 12.3889C14.8 11.6669 14.505 10.9745 13.9799 10.464C13.4548 9.95347 12.7426 9.66667 12 9.66667C11.2574 9.66667 10.5452 9.95347 10.0201 10.464C9.495 10.9745 9.2 11.6669 9.2 12.3889C9.2 13.1109 9.495 13.8033 10.0201 14.3138C10.5452 14.8243 11.2574 15.1111 12 15.1111V15.1111Z" fill="#03053D"/>
</svg>
