<svg width="24" height="24" viewBox="0 0 24 24" fill="none" xmlns="http://www.w3.org/2000/svg">
<path d="M16.2353 10.9535C16.2353 9.76927 15.7891 8.63355 14.9948 7.79617C14.2005 6.9588 13.1233 6.48837 12 6.48837C10.8767 6.48837 9.79947 6.9588 9.00519 7.79617C8.21092 8.63355 7.76471 9.76927 7.76471 10.9535V16.907H16.2353V10.9535ZM17.6471 17.4033L17.9294 17.8C17.9687 17.8553 17.9927 17.921 17.9986 17.9898C18.0045 18.0587 17.9921 18.1279 17.9627 18.1897C17.9334 18.2515 17.8884 18.3034 17.8326 18.3398C17.7769 18.3761 17.7126 18.3953 17.6471 18.3953H6.35294C6.2874 18.3953 6.22315 18.3761 6.16739 18.3398C6.11163 18.3034 6.06657 18.2515 6.03726 18.1897C6.00795 18.1279 5.99554 18.0587 6.00143 17.9898C6.00731 17.921 6.03126 17.8553 6.07059 17.8L6.35294 17.4033V10.9535C6.35294 9.37453 6.9479 7.86023 8.00693 6.74374C9.06596 5.62724 10.5023 5 12 5C13.4977 5 14.934 5.62724 15.9931 6.74374C17.0521 7.86023 17.6471 9.37453 17.6471 10.9535V17.4033ZM10.2353 19.1395H13.7647C13.7647 19.633 13.5788 20.1062 13.2478 20.4551C12.9169 20.804 12.468 21 12 21C11.532 21 11.0831 20.804 10.7522 20.4551C10.4212 20.1062 10.2353 19.633 10.2353 19.1395Z" fill="#03053D"/>
</svg>
