<svg width="24" height="24" viewBox="0 0 24 24" fill="none" xmlns="http://www.w3.org/2000/svg">
<path d="M12.0004 5.45455C11.3777 5.45455 10.7805 5.68442 10.3402 6.09359C9.89994 6.50276 9.65258 7.05771 9.65258 7.63636V10.5455C9.65258 11.1241 9.89994 11.6791 10.3402 12.0882C10.7805 12.4974 11.3777 12.7273 12.0004 12.7273C12.6231 12.7273 13.2202 12.4974 13.6605 12.0882C14.1008 11.6791 14.3482 11.1241 14.3482 10.5455V7.63636C14.3482 7.05771 14.1008 6.50276 13.6605 6.09359C13.2202 5.68442 12.6231 5.45455 12.0004 5.45455ZM12.0004 4C12.5143 4 13.0231 4.09406 13.4978 4.2768C13.9726 4.45955 14.404 4.7274 14.7673 5.06507C15.1307 5.40273 15.4189 5.8036 15.6156 6.24479C15.8122 6.68597 15.9134 7.15883 15.9134 7.63636V10.5455C15.9134 11.5099 15.5011 12.4348 14.7673 13.1168C14.0335 13.7987 13.0382 14.1818 12.0004 14.1818C10.9626 14.1818 9.9673 13.7987 9.23347 13.1168C8.49964 12.4348 8.08737 11.5099 8.08737 10.5455V7.63636C8.08737 6.67194 8.49964 5.74702 9.23347 5.06507C9.9673 4.38312 10.9626 4 12.0004 4ZM5 11.2727H6.57695C6.76657 12.4835 7.41893 13.5903 8.41468 14.3907C9.41044 15.1912 10.683 15.6317 11.9996 15.6317C13.3162 15.6317 14.5888 15.1912 15.5845 14.3907C16.5803 13.5903 17.2327 12.4835 17.4223 11.2727H19C18.8221 12.7482 18.1099 14.1236 16.9803 15.1735C15.8506 16.2234 14.3707 16.8854 12.783 17.0509V20H11.2178V17.0509C9.62999 16.8855 8.14981 16.2236 7.02004 15.1737C5.89026 14.1238 5.17797 12.7483 5 11.2727Z" fill="black"/>
</svg>
