<svg width="105" height="24" viewBox="0 0 105 24" fill="none" xmlns="http://www.w3.org/2000/svg">
<path d="M0 4C0 1.79086 1.79086 0 4 0H101C103.209 0 105 1.79086 105 4V20C105 22.2091 103.209 24 101 24H4C1.79086 24 0 22.2091 0 20V4Z" fill="#F9A831"/>
<path d="M23.9746 16H27.3584C28.8672 16 29.8193 15.2041 29.8193 13.9736V13.9639C29.8193 13.0703 29.1064 12.3525 28.1836 12.3037V12.2109C28.9307 12.1084 29.4971 11.4688 29.4971 10.7168V10.707C29.4971 9.61816 28.667 8.9541 27.2607 8.9541H23.9746V16ZM26.7822 10.2188C27.3926 10.2188 27.749 10.5215 27.749 11.0195V11.0293C27.749 11.5225 27.3682 11.8252 26.7139 11.8252H25.7666V10.2188H26.7822ZM26.8408 12.9141C27.583 12.9141 27.998 13.2314 27.998 13.8076V13.8174C27.998 14.4082 27.5928 14.7354 26.8506 14.7354H25.7666V12.9141H26.8408ZM34.248 16.1904C36.3672 16.1904 37.7197 14.7695 37.7197 12.4795V12.4697C37.7197 10.1846 36.3623 8.76367 34.248 8.76367C32.1289 8.76367 30.7715 10.1846 30.7715 12.4697V12.4795C30.7715 14.7695 32.1191 16.1904 34.248 16.1904ZM34.248 14.7061C33.2471 14.7061 32.5928 13.8369 32.5928 12.4795V12.4697C32.5928 11.1172 33.2568 10.248 34.248 10.248C35.2344 10.248 35.8936 11.1172 35.8936 12.4697V12.4795C35.8936 13.8369 35.2344 14.7061 34.248 14.7061ZM42.1973 16.1904C44.3164 16.1904 45.6689 14.7695 45.6689 12.4795V12.4697C45.6689 10.1846 44.3115 8.76367 42.1973 8.76367C40.0781 8.76367 38.7207 10.1846 38.7207 12.4697V12.4795C38.7207 14.7695 40.0684 16.1904 42.1973 16.1904ZM42.1973 14.7061C41.1963 14.7061 40.542 13.8369 40.542 12.4795V12.4697C40.542 11.1172 41.2061 10.248 42.1973 10.248C43.1836 10.248 43.8428 11.1172 43.8428 12.4697V12.4795C43.8428 13.8369 43.1836 14.7061 42.1973 14.7061ZM47.002 16H48.7939V14.0078L49.4141 13.2217L51.1914 16H53.2959L50.7178 12.0645L53.1543 8.9541H51.2305L48.8867 11.9814H48.7939V8.9541H47.002V16ZM56.8262 16H58.5254V11.9961H58.6133L61.5625 16H62.9834V8.9541H61.2842V12.9189H61.1963L58.2568 8.9541H56.8262V16ZM67.793 16.1904C69.9121 16.1904 71.2646 14.7695 71.2646 12.4795V12.4697C71.2646 10.1846 69.9072 8.76367 67.793 8.76367C65.6738 8.76367 64.3164 10.1846 64.3164 12.4697V12.4795C64.3164 14.7695 65.6641 16.1904 67.793 16.1904ZM67.793 14.7061C66.792 14.7061 66.1377 13.8369 66.1377 12.4795V12.4697C66.1377 11.1172 66.8018 10.248 67.793 10.248C68.7793 10.248 69.4385 11.1172 69.4385 12.4697V12.4795C69.4385 13.8369 68.7793 14.7061 67.793 14.7061ZM73.8037 16H75.4932L76.6504 11.6836H76.7383L77.915 16H79.5947L81.4355 8.9541H79.5898L78.667 13.627H78.5791L77.4121 8.9541H75.9766L74.8486 13.627H74.7607L73.8232 8.9541H71.9629L73.8037 16Z" fill="white"/>
</svg>
