<svg width="12" height="15" viewBox="0 0 12 15" fill="none" xmlns="http://www.w3.org/2000/svg">
<path d="M6 12.6778L9.3 9.48838C9.9526 8.85758 10.397 8.05392 10.577 7.17902C10.7571 6.30411 10.6646 5.39726 10.3114 4.57313C9.95817 3.749 9.36003 3.04462 8.59261 2.54903C7.82519 2.05345 6.92296 1.78894 6 1.78894C5.07704 1.78894 4.17481 2.05345 3.40739 2.54903C2.63997 3.04462 2.04183 3.749 1.68861 4.57313C1.33539 5.39726 1.24294 6.30411 1.42297 7.17902C1.603 8.05392 2.0474 8.85758 2.7 9.48838L6 12.6778ZM6 14.5L1.75734 10.3995C0.918228 9.58846 0.346791 8.55518 0.115286 7.43029C-0.11622 6.3054 0.00260456 5.13942 0.456732 4.0798C0.91086 3.02017 1.67989 2.1145 2.66659 1.4773C3.65328 0.840103 4.81332 0.5 6 0.5C7.18668 0.5 8.34672 0.840103 9.33341 1.4773C10.3201 2.1145 11.0891 3.02017 11.5433 4.0798C11.9974 5.13942 12.1162 6.3054 11.8847 7.43029C11.6532 8.55518 11.0818 9.58846 10.2427 10.3995L6 14.5ZM6 7.5876C6.35362 7.5876 6.69276 7.45183 6.94281 7.21016C7.19286 6.96849 7.33333 6.64071 7.33333 6.29894C7.33333 5.95716 7.19286 5.62939 6.94281 5.38772C6.69276 5.14604 6.35362 5.01027 6 5.01027C5.64638 5.01027 5.30724 5.14604 5.05719 5.38772C4.80714 5.62939 4.66667 5.95716 4.66667 6.29894C4.66667 6.64071 4.80714 6.96849 5.05719 7.21016C5.30724 7.45183 5.64638 7.5876 6 7.5876ZM6 8.87627C5.29276 8.87627 4.61448 8.60473 4.11438 8.12139C3.61429 7.63804 3.33333 6.98249 3.33333 6.29894C3.33333 5.61539 3.61429 4.95984 4.11438 4.47649C4.61448 3.99315 5.29276 3.72161 6 3.72161C6.70724 3.72161 7.38552 3.99315 7.88562 4.47649C8.38571 4.95984 8.66667 5.61539 8.66667 6.29894C8.66667 6.98249 8.38571 7.63804 7.88562 8.12139C7.38552 8.60473 6.70724 8.87627 6 8.87627Z" fill="white"/>
</svg>
