<svg width="18" height="8" viewBox="0 0 18 8" fill="none" xmlns="http://www.w3.org/2000/svg">
<path d="M0.664062 7H2.09766V5.34766H3.08984C4.35156 5.34766 5.16406 4.57422 5.16406 3.36719V3.35938C5.16406 2.15234 4.35156 1.36328 3.08984 1.36328H0.664062V7ZM2.74609 2.46094C3.35547 2.46094 3.71484 2.77344 3.71484 3.35938V3.36719C3.71484 3.95312 3.35547 4.26953 2.74609 4.26953H2.09766V2.46094H2.74609ZM7.11719 7.06641C7.67188 7.06641 8.13672 6.83203 8.32812 6.46094H8.40234V7H9.76172V4.03516C9.76172 3.09766 9.07812 2.55078 7.87891 2.55078C6.70312 2.55078 5.95312 3.07812 5.875 3.87891L5.87109 3.92578H7.125L7.13281 3.90625C7.21484 3.6875 7.4375 3.56641 7.80078 3.56641C8.18359 3.56641 8.40234 3.74219 8.40234 4.03516V4.375L7.45312 4.42969C6.33203 4.5 5.71484 4.95703 5.71484 5.74609V5.75391C5.71484 6.54688 6.28516 7.06641 7.11719 7.06641ZM7.04688 5.65625V5.64844C7.04688 5.39062 7.26172 5.22656 7.67188 5.19922L8.40234 5.15234V5.4375C8.40234 5.8125 8.0625 6.10156 7.625 6.10156C7.27734 6.10156 7.04688 5.92969 7.04688 5.65625ZM11.5078 2.07031C11.9102 2.07031 12.2422 1.75391 12.2422 1.35156C12.2422 0.949219 11.9102 0.628906 11.5078 0.628906C11.1055 0.628906 10.7734 0.949219 10.7734 1.35156C10.7734 1.75391 11.1055 2.07031 11.5078 2.07031ZM10.8125 7H12.1992V2.65234H10.8125V7ZM14.8008 7.06641C15.4219 7.06641 15.8711 6.79688 16.0742 6.33594H16.1484V7H17.5352V1.02344H16.1484V3.35156H16.0742C15.8672 2.87109 15.3984 2.58594 14.8008 2.58594C13.7031 2.58594 13.0664 3.40625 13.0664 4.82031V4.82812C13.0664 6.23438 13.7227 7.06641 14.8008 7.06641ZM15.3125 5.9375C14.7969 5.9375 14.4727 5.51953 14.4727 4.82812V4.82031C14.4727 4.13672 14.8008 3.71484 15.3125 3.71484C15.8242 3.71484 16.1602 4.13281 16.1602 4.82422V4.83203C16.1602 5.52344 15.832 5.9375 15.3125 5.9375Z" fill="white"/>
</svg>
