<svg width="42" height="16" viewBox="0 0 42 16" fill="none" xmlns="http://www.w3.org/2000/svg">
<path d="M0 8C0 3.58172 3.58172 0 8 0H34C38.4183 0 42 3.58172 42 8C42 12.4183 38.4183 16 34 16H8C3.58172 16 0 12.4183 0 8Z" fill="black"/>
<path d="M5.74219 11.0664C6.30469 11.0664 6.75781 10.8281 6.97656 10.4297H7.04688V11H8.17188V8.0625C8.17188 7.14453 7.52734 6.60547 6.38672 6.60547C5.30469 6.60547 4.59375 7.10547 4.50391 7.85938L4.5 7.89453H5.55469L5.5625 7.87891C5.65234 7.625 5.91406 7.48047 6.32422 7.48047C6.79297 7.48047 7.04688 7.69141 7.04688 8.0625V8.41797L6.00781 8.48047C4.9375 8.54297 4.33984 8.99609 4.33984 9.76953V9.77734C4.33984 10.5586 4.92188 11.0664 5.74219 11.0664ZM5.45312 9.70703V9.69922C5.45312 9.38672 5.69141 9.20312 6.17969 9.17188L7.04688 9.11719V9.43359C7.04688 9.88672 6.65234 10.2344 6.125 10.2344C5.73047 10.2344 5.45312 10.0352 5.45312 9.70703ZM10.4609 11.0664C11.0234 11.0664 11.4766 10.8281 11.6953 10.4297H11.7656V11H12.8906V8.0625C12.8906 7.14453 12.2461 6.60547 11.1055 6.60547C10.0234 6.60547 9.3125 7.10547 9.22266 7.85938L9.21875 7.89453H10.2734L10.2812 7.87891C10.3711 7.625 10.6328 7.48047 11.043 7.48047C11.5117 7.48047 11.7656 7.69141 11.7656 8.0625V8.41797L10.7266 8.48047C9.65625 8.54297 9.05859 8.99609 9.05859 9.76953V9.77734C9.05859 10.5586 9.64062 11.0664 10.4609 11.0664ZM10.1719 9.70703V9.69922C10.1719 9.38672 10.4102 9.20312 10.8984 9.17188L11.7656 9.11719V9.43359C11.7656 9.88672 11.3711 10.2344 10.8438 10.2344C10.4492 10.2344 10.1719 10.0352 10.1719 9.70703ZM15.1797 11.0664C15.7422 11.0664 16.1953 10.8281 16.4141 10.4297H16.4844V11H17.6094V8.0625C17.6094 7.14453 16.9648 6.60547 15.8242 6.60547C14.7422 6.60547 14.0312 7.10547 13.9414 7.85938L13.9375 7.89453H14.9922L15 7.87891C15.0898 7.625 15.3516 7.48047 15.7617 7.48047C16.2305 7.48047 16.4844 7.69141 16.4844 8.0625V8.41797L15.4453 8.48047C14.375 8.54297 13.7773 8.99609 13.7773 9.76953V9.77734C13.7773 10.5586 14.3594 11.0664 15.1797 11.0664ZM14.8906 9.70703V9.69922C14.8906 9.38672 15.1289 9.20312 15.6172 9.17188L16.4844 9.11719V9.43359C16.4844 9.88672 16.0898 10.2344 15.5625 10.2344C15.168 10.2344 14.8906 10.0352 14.8906 9.70703ZM19.8984 11.0664C20.4609 11.0664 20.9141 10.8281 21.1328 10.4297H21.2031V11H22.3281V8.0625C22.3281 7.14453 21.6836 6.60547 20.543 6.60547C19.4609 6.60547 18.75 7.10547 18.6602 7.85938L18.6562 7.89453H19.7109L19.7188 7.87891C19.8086 7.625 20.0703 7.48047 20.4805 7.48047C20.9492 7.48047 21.2031 7.69141 21.2031 8.0625V8.41797L20.1641 8.48047C19.0938 8.54297 18.4961 8.99609 18.4961 9.76953V9.77734C18.4961 10.5586 19.0781 11.0664 19.8984 11.0664ZM19.6094 9.70703V9.69922C19.6094 9.38672 19.8477 9.20312 20.3359 9.17188L21.2031 9.11719V9.43359C21.2031 9.88672 20.8086 10.2344 20.2812 10.2344C19.8867 10.2344 19.6094 10.0352 19.6094 9.70703ZM24.6172 11.0664C25.1797 11.0664 25.6328 10.8281 25.8516 10.4297H25.9219V11H27.0469V8.0625C27.0469 7.14453 26.4023 6.60547 25.2617 6.60547C24.1797 6.60547 23.4688 7.10547 23.3789 7.85938L23.375 7.89453H24.4297L24.4375 7.87891C24.5273 7.625 24.7891 7.48047 25.1992 7.48047C25.668 7.48047 25.9219 7.69141 25.9219 8.0625V8.41797L24.8828 8.48047C23.8125 8.54297 23.2148 8.99609 23.2148 9.76953V9.77734C23.2148 10.5586 23.7969 11.0664 24.6172 11.0664ZM24.3281 9.70703V9.69922C24.3281 9.38672 24.5664 9.20312 25.0547 9.17188L25.9219 9.11719V9.43359C25.9219 9.88672 25.5273 10.2344 25 10.2344C24.6055 10.2344 24.3281 10.0352 24.3281 9.70703ZM29.3359 11.0664C29.8984 11.0664 30.3516 10.8281 30.5703 10.4297H30.6406V11H31.7656V8.0625C31.7656 7.14453 31.1211 6.60547 29.9805 6.60547C28.8984 6.60547 28.1875 7.10547 28.0977 7.85938L28.0938 7.89453H29.1484L29.1562 7.87891C29.2461 7.625 29.5078 7.48047 29.918 7.48047C30.3867 7.48047 30.6406 7.69141 30.6406 8.0625V8.41797L29.6016 8.48047C28.5312 8.54297 27.9336 8.99609 27.9336 9.76953V9.77734C27.9336 10.5586 28.5156 11.0664 29.3359 11.0664ZM29.0469 9.70703V9.69922C29.0469 9.38672 29.2852 9.20312 29.7734 9.17188L30.6406 9.11719V9.43359C30.6406 9.88672 30.2461 10.2344 29.7188 10.2344C29.3242 10.2344 29.0469 10.0352 29.0469 9.70703ZM34.0547 11.0664C34.6172 11.0664 35.0703 10.8281 35.2891 10.4297H35.3594V11H36.4844V8.0625C36.4844 7.14453 35.8398 6.60547 34.6992 6.60547C33.6172 6.60547 32.9062 7.10547 32.8164 7.85938L32.8125 7.89453H33.8672L33.875 7.87891C33.9648 7.625 34.2266 7.48047 34.6367 7.48047C35.1055 7.48047 35.3594 7.69141 35.3594 8.0625V8.41797L34.3203 8.48047C33.25 8.54297 32.6523 8.99609 32.6523 9.76953V9.77734C32.6523 10.5586 33.2344 11.0664 34.0547 11.0664ZM33.7656 9.70703V9.69922C33.7656 9.38672 34.0039 9.20312 34.4922 9.17188L35.3594 9.11719V9.43359C35.3594 9.88672 34.9648 10.2344 34.4375 10.2344C34.043 10.2344 33.7656 10.0352 33.7656 9.70703Z" fill="white"/>
<path d="M8 0.5H34V-0.5H8V0.5ZM34 15.5H8V16.5H34V15.5ZM8 15.5C3.85786 15.5 0.5 12.1421 0.5 8H-0.5C-0.5 12.6944 3.30558 16.5 8 16.5V15.5ZM41.5 8C41.5 12.1421 38.1421 15.5 34 15.5V16.5C38.6944 16.5 42.5 12.6944 42.5 8H41.5ZM34 0.5C38.1421 0.5 41.5 3.85786 41.5 8H42.5C42.5 3.30558 38.6944 -0.5 34 -0.5V0.5ZM8 -0.5C3.30558 -0.5 -0.5 3.30558 -0.5 8H0.5C0.5 3.85786 3.85786 0.5 8 0.5V-0.5Z" fill="white"/>
</svg>
