<svg width="104" height="24" viewBox="0 0 104 24" fill="none" xmlns="http://www.w3.org/2000/svg">
<path d="M0 12C0 5.37258 5.37258 0 12 0H92C98.6274 0 104 5.37258 104 12C104 18.6274 98.6274 24 92 24H12C5.37259 24 0 18.6274 0 12Z" fill="#F9A831"/>
<path d="M8.88428 15.5H10.27V8.91504H12.6602V7.74951H6.49951V8.91504H8.88428V15.5ZM14.0244 15.5H15.3618V12.0786C15.3618 11.1978 15.856 10.6392 16.6509 10.6392C17.4619 10.6392 17.8325 11.1011 17.8325 12.0142V15.5H19.1699V11.7026C19.1699 10.3062 18.4556 9.5166 17.145 9.5166C16.2964 9.5166 15.7324 9.89795 15.4531 10.5264H15.3618V7.35742H14.0244V15.5ZM21.4365 8.64648C21.8716 8.64648 22.2314 8.29736 22.2314 7.85693C22.2314 7.42188 21.8716 7.06738 21.4365 7.06738C20.9961 7.06738 20.6362 7.42188 20.6362 7.85693C20.6362 8.29736 20.9961 8.64648 21.4365 8.64648ZM20.7651 15.5H22.1025V9.62939H20.7651V15.5ZM23.7461 15.5H25.0835V12.0786C25.0835 11.1978 25.5776 10.6392 26.3726 10.6392C27.1836 10.6392 27.5542 11.1011 27.5542 12.0142V15.5H28.8916V11.7026C28.8916 10.3062 28.1772 9.5166 26.8667 9.5166C26.0181 9.5166 25.4541 9.89795 25.1748 10.5264H25.0835V9.62939H23.7461V15.5ZM32.9951 17.5625C34.7085 17.5625 35.7935 16.7085 35.7935 15.355V9.62939H34.4561V10.5962H34.3862C34.0532 9.93018 33.4194 9.53271 32.6084 9.53271C31.0938 9.53271 30.1699 10.7036 30.1699 12.4009V12.4116C30.1699 14.0767 31.0938 15.2261 32.5815 15.2261C33.3926 15.2261 34.0317 14.8823 34.3701 14.2539H34.4614V15.3765C34.4614 16.1284 33.9297 16.5527 33.0166 16.5527C32.27 16.5527 31.8242 16.2896 31.7329 15.9136L31.7275 15.8975H30.3901L30.3848 15.9136C30.519 16.9019 31.4482 17.5625 32.9951 17.5625ZM32.9951 14.1626C32.0659 14.1626 31.5396 13.4482 31.5396 12.4116V12.4009C31.5396 11.3643 32.0659 10.6445 32.9951 10.6445C33.9189 10.6445 34.4829 11.3643 34.4829 12.4009V12.4116C34.4829 13.4482 33.9243 14.1626 32.9951 14.1626ZM39.6499 15.6182C41.0947 15.6182 42.1421 14.8716 42.1421 13.7544V13.7437C42.1421 12.8896 41.5996 12.4009 40.4502 12.1431L39.4995 11.9336C38.8657 11.7886 38.6187 11.5791 38.6187 11.2354V11.23C38.6187 10.7896 39.0483 10.4995 39.6445 10.4995C40.2729 10.4995 40.6597 10.8003 40.7563 11.1709L40.7617 11.187H42.0186V11.1763C41.9326 10.2256 41.0786 9.5166 39.6499 9.5166C38.2642 9.5166 37.2974 10.2471 37.2974 11.3052V11.3105C37.2974 12.1753 37.8291 12.7017 38.9463 12.9487L39.897 13.1636C40.5415 13.3086 40.7993 13.5342 40.7993 13.8779V13.8887C40.7993 14.3291 40.3374 14.6299 39.6714 14.6299C39.0054 14.6299 38.6133 14.3452 38.4736 13.937L38.4683 13.9263H37.1416V13.937C37.2544 14.9307 38.1567 15.6182 39.6499 15.6182ZM48.7324 15.5269C48.9902 15.5269 49.2373 15.5054 49.4307 15.4678V14.4365C49.2695 14.4526 49.1675 14.458 48.9795 14.458C48.4209 14.458 48.1899 14.2109 48.1899 13.6255V10.666H49.4307V9.62939H48.1899V8.18994H46.8311V9.62939H45.918V10.666H46.8311V13.9424C46.8311 15.0757 47.3843 15.5269 48.7324 15.5269ZM53.2441 15.6182C55.0005 15.6182 56.0693 14.4688 56.0693 12.5674V12.5566C56.0693 10.666 54.9951 9.5166 53.2441 9.5166C51.4985 9.5166 50.4189 10.6714 50.4189 12.5566V12.5674C50.4189 14.4688 51.4824 15.6182 53.2441 15.6182ZM53.2441 14.5332C52.3149 14.5332 51.7832 13.8081 51.7832 12.5728V12.562C51.7832 11.3267 52.3149 10.5962 53.2441 10.5962C54.168 10.5962 54.6997 11.3267 54.6997 12.562V12.5728C54.6997 13.8081 54.1733 14.5332 53.2441 14.5332ZM62.4609 15.5967C63.2881 15.5967 63.9219 15.2207 64.2441 14.5815H64.3354V15.5H65.6782V7.35742H64.3354V10.564H64.2441C63.938 9.93018 63.2666 9.53271 62.4609 9.53271C60.9731 9.53271 60.0547 10.6929 60.0547 12.562V12.5728C60.0547 14.4312 60.9893 15.5967 62.4609 15.5967ZM62.8799 14.4688C61.9668 14.4688 61.4136 13.7544 61.4136 12.5728V12.562C61.4136 11.3804 61.9722 10.6606 62.8799 10.6606C63.7876 10.6606 64.3569 11.3857 64.3569 12.562V12.5728C64.3569 13.749 63.793 14.4688 62.8799 14.4688ZM69.8945 15.6182C71.6509 15.6182 72.7197 14.4688 72.7197 12.5674V12.5566C72.7197 10.666 71.6455 9.5166 69.8945 9.5166C68.1489 9.5166 67.0693 10.6714 67.0693 12.5566V12.5674C67.0693 14.4688 68.1328 15.6182 69.8945 15.6182ZM69.8945 14.5332C68.9653 14.5332 68.4336 13.8081 68.4336 12.5728V12.562C68.4336 11.3267 68.9653 10.5962 69.8945 10.5962C70.8184 10.5962 71.3501 11.3267 71.3501 12.562V12.5728C71.3501 13.8081 70.8237 14.5332 69.8945 14.5332Z" fill="white"/>
<line x1="81.5" y1="5" x2="81.5" y2="19" stroke="white"/>
<path d="M89.175 8.91248L93 12.7291L96.825 8.91248L98 10.0875L93 15.0875L88 10.0875L89.175 8.91248Z" fill="white"/>
</svg>
