<svg width="41" height="16" viewBox="0 0 41 16" fill="none" xmlns="http://www.w3.org/2000/svg">
<path d="M0 4C0 1.79086 1.79086 0 4 0H37C39.2091 0 41 1.79086 41 4V12C41 14.2091 39.2091 16 37 16H4C1.79086 16 0 14.2091 0 12V4Z" fill="#F9A831"/>
<path d="M4.68359 11H8.37109V10.0273H5.86328V5.36328H4.68359V11ZM11.043 11.0898C12.3672 11.0898 13.1641 10.2539 13.1641 8.85156V8.84375C13.1641 7.45312 12.3555 6.60547 11.043 6.60547C9.73047 6.60547 8.92188 7.45703 8.92188 8.84375V8.85156C8.92188 10.25 9.71875 11.0898 11.043 11.0898ZM11.043 10.1953C10.4336 10.1953 10.0898 9.69922 10.0898 8.85156V8.84375C10.0898 8.00391 10.4375 7.5 11.043 7.5C11.6445 7.5 11.9961 8.00391 11.9961 8.84375V8.85156C11.9961 9.69922 11.6484 10.1953 11.043 10.1953ZM15.6289 11.0664C16.2344 11.0664 16.6914 10.7969 16.9141 10.332H16.9844V11H18.125V5.05469H16.9844V7.38672H16.9141C16.6992 6.91797 16.2188 6.62891 15.6289 6.62891C14.5391 6.62891 13.8828 7.46094 13.8828 8.84375V8.85156C13.8828 10.2266 14.5547 11.0664 15.6289 11.0664ZM16.0156 10.1211C15.4141 10.1211 15.043 9.64453 15.043 8.85156V8.84375C15.043 8.05859 15.4141 7.57422 16.0156 7.57422C16.6172 7.57422 16.9961 8.05859 16.9961 8.84766V8.85547C16.9961 9.64453 16.6211 10.1211 16.0156 10.1211ZM21.2031 12.5117C22.5039 12.5117 23.3281 11.875 23.3281 10.8672V6.69922H22.1875V7.40234H22.1328C21.9023 6.91797 21.4414 6.62891 20.8516 6.62891C19.75 6.62891 19.082 7.48047 19.082 8.74609V8.75391C19.082 9.97656 19.75 10.8125 20.832 10.8125C21.4297 10.8125 21.8828 10.5664 22.1211 10.1133H22.1914V10.9141C22.1914 11.4141 21.8359 11.6992 21.2266 11.6992C20.7188 11.6992 20.4219 11.5273 20.3594 11.2773L20.3555 11.2617H19.2266V11.2812C19.3203 12.0117 20.0117 12.5117 21.2031 12.5117ZM21.2188 9.9375C20.6016 9.9375 20.25 9.45703 20.25 8.75V8.74219C20.25 8.03516 20.6055 7.55469 21.2188 7.55469C21.832 7.55469 22.2031 8.03516 22.2031 8.74219V8.75C22.2031 9.45703 21.8359 9.9375 21.2188 9.9375ZM25.0508 6.03906C25.4023 6.03906 25.6914 5.75781 25.6914 5.40625C25.6914 5.05078 25.4023 4.76953 25.0508 4.76953C24.6992 4.76953 24.4062 5.05078 24.4062 5.40625C24.4062 5.75781 24.6992 6.03906 25.0508 6.03906ZM24.4766 11H25.6172V6.69922H24.4766V11ZM26.7656 11H27.9062V8.51172C27.9062 7.92969 28.2266 7.55078 28.7539 7.55078C29.293 7.55078 29.543 7.87109 29.543 8.47656V11H30.6836V8.21875C30.6836 7.19141 30.168 6.60547 29.2109 6.60547C28.5977 6.60547 28.1719 6.89844 27.9766 7.36328H27.9062V6.69922H26.7656V11ZM33.6875 12.5117C34.9883 12.5117 35.8125 11.875 35.8125 10.8672V6.69922H34.6719V7.40234H34.6172C34.3867 6.91797 33.9258 6.62891 33.3359 6.62891C32.2344 6.62891 31.5664 7.48047 31.5664 8.74609V8.75391C31.5664 9.97656 32.2344 10.8125 33.3164 10.8125C33.9141 10.8125 34.3672 10.5664 34.6055 10.1133H34.6758V10.9141C34.6758 11.4141 34.3203 11.6992 33.7109 11.6992C33.2031 11.6992 32.9062 11.5273 32.8438 11.2773L32.8398 11.2617H31.7109V11.2812C31.8047 12.0117 32.4961 12.5117 33.6875 12.5117ZM33.7031 9.9375C33.0859 9.9375 32.7344 9.45703 32.7344 8.75V8.74219C32.7344 8.03516 33.0898 7.55469 33.7031 7.55469C34.3164 7.55469 34.6875 8.03516 34.6875 8.74219V8.75C34.6875 9.45703 34.3203 9.9375 33.7031 9.9375Z" fill="white"/>
</svg>
