<svg width="24" height="24" viewBox="0 0 24 24" fill="none" xmlns="http://www.w3.org/2000/svg">
<path d="M14.1273 8.50785H19.3636C19.7976 8.50785 20.2138 8.69412 20.5207 9.02569C20.8276 9.35726 21 9.80696 21 10.2759V12.1358C21.0002 12.3669 20.9585 12.5957 20.8773 12.8094L18.345 19.4528C18.2832 19.6148 18.1783 19.7532 18.0436 19.8507C17.9088 19.9481 17.7503 20.0001 17.5882 20H3.81818C3.60119 20 3.39308 19.9069 3.23964 19.7411C3.0862 19.5753 3 19.3504 3 19.116V10.2759C3 10.0414 3.0862 9.81656 3.23964 9.65078C3.39308 9.485 3.60119 9.39186 3.81818 9.39186H6.66709C6.79808 9.39189 6.92716 9.35795 7.04348 9.29288C7.1598 9.22781 7.25996 9.13351 7.33555 9.01792L11.7971 2.18716C11.8535 2.10081 11.9367 2.03914 12.0315 2.01336C12.1264 1.98757 12.2267 1.99937 12.3142 2.04661L13.7984 2.8484C14.216 3.07397 14.5497 3.44716 14.744 3.90596C14.9382 4.36476 14.9813 4.88156 14.8661 5.37049L14.1273 8.50785ZM7.90909 10.7957V18.232H17.04L19.3636 12.1358V10.2759H14.1273C13.8781 10.2758 13.6321 10.2143 13.4083 10.0959C13.1844 9.97758 12.9885 9.80555 12.8356 9.59296C12.6826 9.38037 12.5766 9.13284 12.5257 8.86925C12.4748 8.60567 12.4802 8.33299 12.5416 8.07203L13.2805 4.93556C13.3036 4.83772 13.295 4.73428 13.2561 4.64244C13.2173 4.55061 13.1505 4.47591 13.0669 4.43078L12.5261 4.13906L8.67245 10.0372C8.46791 10.3501 8.20609 10.6065 7.90909 10.7957ZM6.27273 11.1599H4.63636V18.232H6.27273V11.1599Z" fill="white"/>
</svg>
