<svg width="83" height="16" viewBox="0 0 83 16" fill="none" xmlns="http://www.w3.org/2000/svg">
<path d="M0 8C0 3.58172 3.58172 0 8 0H75C79.4183 0 83 3.58172 83 8C83 12.4183 79.4183 16 75 16H8C3.58172 16 0 12.4183 0 8Z" fill="#F9A831"/>
<path d="M18.2812 11H19.5195L19.9375 9.63281H21.9258L22.3438 11H23.5859L21.625 5.36328H20.2383L18.2812 11ZM20.8984 6.48828H20.9688L21.6562 8.75H20.207L20.8984 6.48828ZM26.0898 11.0898C27.2109 11.0898 27.8828 10.4883 28 9.55078L28.0039 9.52734H26.9492L26.9414 9.54297C26.8398 9.97266 26.5625 10.1953 26.0938 10.1953C25.4844 10.1953 25.1445 9.71484 25.1445 8.84375V8.83594C25.1445 7.97656 25.4805 7.5 26.0938 7.5C26.582 7.5 26.8672 7.77344 26.9414 8.19141L26.9453 8.19922H28.0078V8.1875C27.9062 7.22656 27.2305 6.60547 26.0898 6.60547C24.7422 6.60547 23.9844 7.42188 23.9844 8.83594V8.84375C23.9844 10.2734 24.7461 11.0898 26.0898 11.0898ZM30.793 11.0898C31.9141 11.0898 32.5859 10.4883 32.7031 9.55078L32.707 9.52734H31.6523L31.6445 9.54297C31.543 9.97266 31.2656 10.1953 30.7969 10.1953C30.1875 10.1953 29.8477 9.71484 29.8477 8.84375V8.83594C29.8477 7.97656 30.1836 7.5 30.7969 7.5C31.2852 7.5 31.5703 7.77344 31.6445 8.19141L31.6484 8.19922H32.7109V8.1875C32.6094 7.22656 31.9336 6.60547 30.793 6.60547C29.4453 6.60547 28.6875 7.42188 28.6875 8.83594V8.84375C28.6875 10.2734 29.4492 11.0898 30.793 11.0898ZM35.4922 11.0898C36.75 11.0898 37.3047 10.3633 37.4375 9.82422L37.4453 9.78516H36.3828L36.3711 9.80859C36.293 9.97266 36.0156 10.2383 35.5156 10.2383C34.9102 10.2383 34.5312 9.82812 34.5195 9.12109H37.4805V8.76562C37.4805 7.46484 36.6992 6.60547 35.4453 6.60547C34.1914 6.60547 33.3906 7.48438 33.3906 8.85156V8.85547C33.3906 10.2344 34.1836 11.0898 35.4922 11.0898ZM35.4648 7.46094C35.9609 7.46094 36.3164 7.78125 36.3867 8.40625H34.5312C34.6016 7.79688 34.9688 7.46094 35.4648 7.46094ZM38.4141 12.4258H39.5547V10.3125H39.625C39.8438 10.7812 40.3242 11.0664 40.9141 11.0664C42.0039 11.0664 42.6602 10.2344 42.6602 8.85156V8.84375C42.6602 7.47266 41.9883 6.62891 40.9141 6.62891C40.3047 6.62891 39.8477 6.90234 39.625 7.36328H39.5547V6.69922H38.4141V12.4258ZM40.5234 10.1211C39.9258 10.1211 39.543 9.64062 39.543 8.85156V8.84375C39.543 8.05469 39.9219 7.57422 40.5234 7.57422C41.1289 7.57422 41.5 8.05469 41.5 8.84375V8.85156C41.5 9.64062 41.125 10.1211 40.5234 10.1211ZM45.3789 11.0156C45.5977 11.0156 45.8086 10.9922 45.9492 10.9648V10.1172C45.8398 10.1289 45.7617 10.1367 45.6133 10.1367C45.2266 10.1367 45.0625 9.96484 45.0625 9.57812V7.55859H45.9492V6.69922H45.0625V5.67188H43.9102V6.69922H43.2461V7.55859H43.9102V9.83984C43.9102 10.6758 44.332 11.0156 45.3789 11.0156ZM49.0742 11H50.2539V5.36328H49.0742V11ZM51.5078 11H52.6484V8.51172C52.6484 7.92969 52.9688 7.55078 53.4961 7.55078C54.0352 7.55078 54.2852 7.87109 54.2852 8.47656V11H55.4258V8.21875C55.4258 7.19141 54.9102 6.60547 53.9531 6.60547C53.3398 6.60547 52.9141 6.89844 52.7188 7.36328H52.6484V6.69922H51.5078V11ZM57.5391 11H58.8203L60.3086 6.69922H59.1094L58.2266 9.93359H58.1562L57.2656 6.69922H56.043L57.5391 11ZM61.6602 6.03906C62.0117 6.03906 62.3008 5.75781 62.3008 5.40625C62.3008 5.05078 62.0117 4.76953 61.6602 4.76953C61.3086 4.76953 61.0156 5.05078 61.0156 5.40625C61.0156 5.75781 61.3086 6.03906 61.6602 6.03906ZM61.0859 11H62.2266V6.69922H61.0859V11ZM65.1602 11.0156C65.3789 11.0156 65.5898 10.9922 65.7305 10.9648V10.1172C65.6211 10.1289 65.543 10.1367 65.3945 10.1367C65.0078 10.1367 64.8438 9.96484 64.8438 9.57812V7.55859H65.7305V6.69922H64.8438V5.67188H63.6914V6.69922H63.0273V7.55859H63.6914V9.83984C63.6914 10.6758 64.1133 11.0156 65.1602 11.0156ZM68.5391 11.0898C69.7969 11.0898 70.3516 10.3633 70.4844 9.82422L70.4922 9.78516H69.4297L69.418 9.80859C69.3398 9.97266 69.0625 10.2383 68.5625 10.2383C67.957 10.2383 67.5781 9.82812 67.5664 9.12109H70.5273V8.76562C70.5273 7.46484 69.7461 6.60547 68.4922 6.60547C67.2383 6.60547 66.4375 7.48438 66.4375 8.85156V8.85547C66.4375 10.2344 67.2305 11.0898 68.5391 11.0898ZM68.5117 7.46094C69.0078 7.46094 69.3633 7.78125 69.4336 8.40625H67.5781C67.6484 7.79688 68.0156 7.46094 68.5117 7.46094ZM73.4375 9.23828H75.125V10.875H76.1523V9.23828H77.8438V8.21094H76.1523V6.57422H75.125V8.21094H73.4375V9.23828Z" fill="white"/>
<path d="M8 0.5H75V-0.5H8V0.5ZM75 15.5H8V16.5H75V15.5ZM8 15.5C3.85786 15.5 0.5 12.1421 0.5 8H-0.5C-0.5 12.6944 3.30558 16.5 8 16.5V15.5ZM82.5 8C82.5 12.1421 79.1421 15.5 75 15.5V16.5C79.6944 16.5 83.5 12.6944 83.5 8H82.5ZM75 0.5C79.1421 0.5 82.5 3.85786 82.5 8H83.5C83.5 3.30558 79.6944 -0.5 75 -0.5V0.5ZM8 -0.5C3.30558 -0.5 -0.5 3.30558 -0.5 8H0.5C0.5 3.85786 3.85786 0.5 8 0.5V-0.5Z" fill="white"/>
</svg>
