<svg width="66" height="24" viewBox="0 0 66 24" fill="none" xmlns="http://www.w3.org/2000/svg">
<rect width="66" height="24" rx="4" fill="#F9A831"/>
<path d="M16.64 9.4248H16.9916V8.93262C17.683 8.87695 18.2572 8.48145 18.2572 7.77832V7.77246C18.2572 7.16016 17.8353 6.84961 17.0824 6.66797L16.9916 6.64746V5.30273C17.3871 5.35254 17.6683 5.5957 17.7064 5.98828V5.99414L18.2162 5.99121V5.98828C18.1928 5.34375 17.6683 4.9043 16.9916 4.84277V4.34766H16.64V4.84277C15.9457 4.90723 15.4506 5.33496 15.4506 5.96191V5.96777C15.4506 6.54199 15.8432 6.86719 16.5726 7.04297L16.64 7.06055V8.46973C16.1303 8.41406 15.9047 8.12402 15.8519 7.76074V7.75488L15.3422 7.75781V7.76074C15.3656 8.44043 15.9428 8.86523 16.64 8.92969V9.4248ZM15.9603 5.93262V5.92676C15.9603 5.64551 16.1947 5.36426 16.64 5.30273V6.5625C16.1361 6.43945 15.9603 6.2168 15.9603 5.93262ZM17.0092 7.14844C17.5892 7.28906 17.7474 7.49414 17.7474 7.81348V7.81934C17.7474 8.15625 17.5365 8.43164 16.9916 8.47559V7.14551L17.0092 7.14844ZM20.2055 9H20.7328V4.77246H20.2084L19.0834 5.58105V6.1377L20.1586 5.3584H20.2055V9ZM21.9545 9H24.6908V8.52539H22.6869V8.47852L23.6478 7.48535C24.4125 6.69727 24.6205 6.3457 24.6205 5.8623V5.85645C24.6205 5.17383 24.0551 4.67285 23.3168 4.67285C22.5082 4.67285 21.9281 5.21191 21.9252 5.96191L21.931 5.96484L22.4349 5.96777L22.4379 5.96191C22.4379 5.46387 22.7748 5.13281 23.2816 5.13281C23.7797 5.13281 24.0814 5.4668 24.0814 5.91211V5.91797C24.0814 6.28711 23.9232 6.50684 23.3842 7.08984L21.9545 8.63672V9ZM26.9906 9.09961C27.9252 9.09961 28.4877 8.24707 28.4877 6.8877V6.88184C28.4877 5.52246 27.9252 4.67285 26.9906 4.67285C26.056 4.67285 25.4994 5.52246 25.4994 6.88184V6.8877C25.4994 8.24707 26.056 9.09961 26.9906 9.09961ZM26.9906 8.63965C26.3842 8.63965 26.0297 7.96582 26.0297 6.8877V6.88184C26.0297 5.80371 26.3842 5.13574 26.9906 5.13574C27.5971 5.13574 27.9574 5.80371 27.9574 6.88184V6.8877C27.9574 7.96582 27.5971 8.63965 26.9906 8.63965ZM30.7084 4.58789H30.2191L28.8832 10.0547H29.3724L30.7084 4.58789ZM32.8734 10.0547H33.3832V8.50195H33.4301C33.6029 8.83887 33.9808 9.05566 34.4144 9.05566C35.2172 9.05566 35.7387 8.41406 35.7387 7.42383V7.41797C35.7387 6.43359 35.2142 5.78613 34.4144 5.78613C33.975 5.78613 33.6234 5.99414 33.4301 6.3457H33.3832V5.8418H32.8734V10.0547ZM34.2973 8.60449C33.723 8.60449 33.3715 8.15332 33.3715 7.42383V7.41797C33.3715 6.68848 33.723 6.2373 34.2973 6.2373C34.8744 6.2373 35.2172 6.68262 35.2172 7.41797V7.42383C35.2172 8.15918 34.8744 8.60449 34.2973 8.60449ZM37.8246 9.05566C38.5687 9.05566 39.0199 8.63379 39.1283 8.20605L39.1342 8.18262H38.6244L38.6127 8.20898C38.5277 8.39941 38.264 8.60156 37.8363 8.60156C37.2738 8.60156 36.9135 8.2207 36.8988 7.56738H39.1723V7.36816C39.1723 6.4248 38.6508 5.78613 37.7924 5.78613C36.934 5.78613 36.3773 6.4541 36.3773 7.42969V7.43262C36.3773 8.42285 36.9223 9.05566 37.8246 9.05566ZM37.7894 6.24023C38.2553 6.24023 38.601 6.53613 38.6537 7.16016H36.9076C36.9633 6.55957 37.3207 6.24023 37.7894 6.24023ZM39.9633 9H40.473V7.04297C40.473 6.58008 40.8187 6.27246 41.3051 6.27246C41.4164 6.27246 41.5131 6.28418 41.6185 6.30176V5.80664C41.5687 5.79785 41.4603 5.78613 41.3637 5.78613C40.9359 5.78613 40.64 5.97949 40.5199 6.31055H40.473V5.8418H39.9633V9ZM43.2738 9.05566C43.9916 9.05566 44.5394 8.66602 44.5394 8.10352V8.09766C44.5394 7.64648 44.2523 7.38867 43.6576 7.24512L43.1713 7.12793C42.7992 7.03711 42.641 6.90234 42.641 6.68848V6.68262C42.641 6.4043 42.9164 6.21094 43.2914 6.21094C43.6723 6.21094 43.9183 6.38379 43.9857 6.63281H44.4867C44.4164 6.11719 43.9564 5.78613 43.2943 5.78613C42.6234 5.78613 42.1195 6.18164 42.1195 6.70605V6.70898C42.1195 7.16309 42.3861 7.4209 42.9779 7.56152L43.4672 7.67871C43.8568 7.77246 44.018 7.92188 44.018 8.13574V8.1416C44.018 8.42871 43.7162 8.63086 43.2914 8.63086C42.8871 8.63086 42.6351 8.45801 42.5502 8.19434H42.0287C42.0873 8.71582 42.5707 9.05566 43.2738 9.05566ZM46.6283 9.05566C47.5277 9.05566 48.0844 8.43457 48.0844 7.42383V7.41797C48.0844 6.4043 47.5277 5.78613 46.6283 5.78613C45.7289 5.78613 45.1723 6.4043 45.1723 7.41797V7.42383C45.1723 8.43457 45.7289 9.05566 46.6283 9.05566ZM46.6283 8.60449C46.0307 8.60449 45.6937 8.16797 45.6937 7.42383V7.41797C45.6937 6.6709 46.0307 6.2373 46.6283 6.2373C47.226 6.2373 47.5629 6.6709 47.5629 7.41797V7.42383C47.5629 8.16797 47.226 8.60449 46.6283 8.60449ZM48.8754 9H49.3851V7.13086C49.3851 6.57715 49.7045 6.2373 50.2084 6.2373C50.7123 6.2373 50.9467 6.50977 50.9467 7.07812V9H51.4564V6.95508C51.4564 6.20508 51.0609 5.78613 50.3519 5.78613C49.8861 5.78613 49.5902 5.98242 49.432 6.31641H49.3851V5.8418H48.8754V9Z" fill="white"/>
<path d="M10.5922 18H13.2992C14.5062 18 15.268 17.3633 15.268 16.3789V16.3711C15.268 15.6562 14.6976 15.082 13.9594 15.043V14.9688C14.557 14.8867 15.0101 14.375 15.0101 13.7734V13.7656C15.0101 12.8945 14.3461 12.3633 13.2211 12.3633H10.5922V18ZM12.8383 13.375C13.3265 13.375 13.6117 13.6172 13.6117 14.0156V14.0234C13.6117 14.418 13.307 14.6602 12.7836 14.6602H12.0258V13.375H12.8383ZM12.8851 15.5312C13.4789 15.5312 13.8109 15.7852 13.8109 16.2461V16.2539C13.8109 16.7266 13.4867 16.9883 12.893 16.9883H12.0258V15.5312H12.8851ZM18.8109 18.1523C20.5062 18.1523 21.5883 17.0156 21.5883 15.1836V15.1758C21.5883 13.3477 20.5023 12.2109 18.8109 12.2109C17.1156 12.2109 16.0297 13.3477 16.0297 15.1758V15.1836C16.0297 17.0156 17.1078 18.1523 18.8109 18.1523ZM18.8109 16.9648C18.0101 16.9648 17.4867 16.2695 17.4867 15.1836V15.1758C17.4867 14.0938 18.018 13.3984 18.8109 13.3984C19.6 13.3984 20.1273 14.0938 20.1273 15.1758V15.1836C20.1273 16.2695 19.6 16.9648 18.8109 16.9648ZM25.1703 18.1523C26.8656 18.1523 27.9476 17.0156 27.9476 15.1836V15.1758C27.9476 13.3477 26.8617 12.2109 25.1703 12.2109C23.475 12.2109 22.389 13.3477 22.389 15.1758V15.1836C22.389 17.0156 23.4672 18.1523 25.1703 18.1523ZM25.1703 16.9648C24.3695 16.9648 23.8461 16.2695 23.8461 15.1836V15.1758C23.8461 14.0938 24.3773 13.3984 25.1703 13.3984C25.9594 13.3984 26.4867 14.0938 26.4867 15.1758V15.1836C26.4867 16.2695 25.9594 16.9648 25.1703 16.9648ZM29.014 18H30.4476V16.4062L30.9437 15.7773L32.3656 18H34.0492L31.9867 14.8516L33.9359 12.3633H32.3969L30.5219 14.7852H30.4476V12.3633H29.014V18ZM36.8734 18H38.2328V14.7969H38.3031L40.6625 18H41.7992V12.3633H40.4398V15.5352H40.3695L38.018 12.3633H36.8734V18ZM45.6469 18.1523C47.3422 18.1523 48.4242 17.0156 48.4242 15.1836V15.1758C48.4242 13.3477 47.3383 12.2109 45.6469 12.2109C43.9515 12.2109 42.8656 13.3477 42.8656 15.1758V15.1836C42.8656 17.0156 43.9437 18.1523 45.6469 18.1523ZM45.6469 16.9648C44.8461 16.9648 44.3226 16.2695 44.3226 15.1836V15.1758C44.3226 14.0938 44.8539 13.3984 45.6469 13.3984C46.4359 13.3984 46.9633 14.0938 46.9633 15.1758V15.1836C46.9633 16.2695 46.4359 16.9648 45.6469 16.9648ZM50.4555 18H51.807L52.7328 14.5469H52.8031L53.7445 18H55.0883L56.5609 12.3633H55.0844L54.3461 16.1016H54.2758L53.3422 12.3633H52.1937L51.2914 16.1016H51.2211L50.4711 12.3633H48.9828L50.4555 18Z" fill="white"/>
</svg>
