<svg width="40" height="50" viewBox="0 0 40 50" fill="none" xmlns="http://www.w3.org/2000/svg">
<rect width="40" height="50" rx="8" fill="black"/>
<path d="M16.8555 19.1328C18.1133 19.1328 18.9375 18.4766 18.9375 17.4219V17.418C18.9375 16.6055 18.4727 16.1328 17.2969 15.8711L16.6719 15.7305C15.9062 15.5625 15.5977 15.2578 15.5977 14.8086V14.8047C15.5977 14.2148 16.1406 13.8828 16.8438 13.8789C17.5781 13.875 18.0469 14.2422 18.125 14.7383L18.1328 14.7891H18.8359L18.832 14.7344C18.7734 13.8945 17.9883 13.2305 16.8633 13.2305C15.6992 13.2305 14.8828 13.8906 14.8789 14.8242V14.8281C14.8789 15.6445 15.3672 16.1641 16.4961 16.4141L17.1211 16.5508C17.8945 16.7227 18.2188 17.043 18.2188 17.5117V17.5156C18.2188 18.0898 17.6602 18.4844 16.8945 18.4844C16.082 18.4844 15.4961 18.1289 15.4453 17.5664L15.4414 17.5234H14.7383L14.7422 17.5664C14.8242 18.4844 15.6211 19.1328 16.8555 19.1328ZM21.1797 19.0742C21.7461 19.0742 22.1875 18.8281 22.4531 18.3789H22.5156V19H23.1953V16.1172C23.1953 15.2422 22.6211 14.7148 21.5938 14.7148C20.6953 14.7148 20.0547 15.1602 19.9453 15.8203L19.9414 15.8438H20.6211L20.625 15.832C20.7344 15.5039 21.0664 15.3164 21.5703 15.3164C22.1992 15.3164 22.5156 15.5977 22.5156 16.1172V16.5L21.3086 16.5742C20.3281 16.6328 19.7734 17.0664 19.7734 17.8164V17.8242C19.7734 18.5898 20.3789 19.0742 21.1797 19.0742ZM20.4688 17.8086V17.8008C20.4688 17.3828 20.75 17.1562 21.3906 17.1172L22.5156 17.0469V17.4297C22.5156 18.0312 22.0117 18.4844 21.3203 18.4844C20.832 18.4844 20.4688 18.2344 20.4688 17.8086ZM25.9336 19.0312C26.0664 19.0312 26.1953 19.0156 26.3281 18.9922V18.4141C26.2031 18.4258 26.1367 18.4297 26.0156 18.4297C25.5781 18.4297 25.4062 18.2305 25.4062 17.7344V15.3516H26.3281V14.7891H25.4062V13.6992H24.7031V14.7891H24.0391V15.3516H24.7031V17.9062C24.7031 18.7109 25.0664 19.0312 25.9336 19.0312Z" fill="white"/>
<path d="M15.1484 38H17.1641V26.7266H15.1562L12.2109 28.7969V30.6953L15.0156 28.7109H15.1484V38ZM24.6016 38.2812C27.0469 38.2812 28.7891 36.6094 28.7891 34.3203V34.3047C28.7891 32.1641 27.2734 30.5859 25.1094 30.5859C23.5625 30.5859 22.5781 31.375 22.1641 32.2656H22.0078C22.0078 32.1797 22.0156 32.0938 22.0156 32.0078C22.1016 29.8516 22.8594 28.1016 24.6484 28.1016C25.6406 28.1016 26.3359 28.6172 26.6328 29.4062L26.6641 29.4844H28.6406L28.625 29.3984C28.2656 27.6719 26.7188 26.4453 24.6484 26.4453C21.8125 26.4453 20.1016 28.6953 20.1016 32.4922V32.5078C20.1016 36.5703 22.1953 38.2812 24.6016 38.2812ZM22.3594 34.3438V34.3281C22.3594 33.0547 23.3359 32.1328 24.6094 32.1328C25.8906 32.1328 26.8203 33.0703 26.8203 34.375V34.3906C26.8203 35.6484 25.8359 36.6406 24.5859 36.6406C23.3359 36.6406 22.3594 35.6328 22.3594 34.3438Z" fill="white"/>
</svg>
