<svg width="320" height="24" viewBox="0 0 320 24" fill="none" xmlns="http://www.w3.org/2000/svg">
<path d="M134.869 16H139.43V14.9404H136.129V12.9238H139.249V11.9229H136.129V10.0137H139.43V8.9541H134.869V16ZM140.46 16H141.769L142.857 14.1445H142.94L144.034 16H145.401L143.658 13.2998L145.382 10.6631H144.049L142.994 12.5137H142.911L141.852 10.6631H140.445L142.188 13.3535L140.46 16ZM146.471 17.7725H147.687V15.1504H147.77C148.048 15.7266 148.658 16.0879 149.391 16.0879C150.743 16.0879 151.583 15.0381 151.583 13.3389V13.3291C151.583 11.6396 150.729 10.5752 149.391 10.5752C148.644 10.5752 148.062 10.917 147.77 11.498H147.687V10.6631H146.471V17.7725ZM149.01 15.0625C148.185 15.0625 147.672 14.4033 147.672 13.334V13.3242C147.672 12.2549 148.185 11.6006 149.01 11.6006C149.84 11.6006 150.343 12.2549 150.343 13.3291V13.3389C150.343 14.4082 149.84 15.0625 149.01 15.0625ZM154.264 16.0879C154.967 16.0879 155.533 15.7852 155.826 15.2676H155.909V16H157.11V12.3525C157.11 11.2246 156.339 10.5605 154.967 10.5605C153.697 10.5605 152.838 11.1562 152.721 12.0547L152.716 12.0986H153.863L153.868 12.0791C153.99 11.7275 154.352 11.5273 154.908 11.5273C155.562 11.5273 155.909 11.8203 155.909 12.3525V12.8115L154.537 12.8945C153.238 12.9727 152.511 13.5293 152.511 14.4814V14.4912C152.511 15.4629 153.248 16.0879 154.264 16.0879ZM153.712 14.4326V14.4229C153.712 13.9834 154.029 13.7344 154.708 13.6904L155.909 13.6123V14.042C155.909 14.6768 155.367 15.1553 154.635 15.1553C154.098 15.1553 153.712 14.8867 153.712 14.4326ZM158.57 16H159.786V12.8896C159.786 12.0889 160.235 11.5811 160.958 11.5811C161.695 11.5811 162.032 12.001 162.032 12.8311V16H163.248V12.5479C163.248 11.2783 162.599 10.5605 161.407 10.5605C160.636 10.5605 160.123 10.9072 159.869 11.4785H159.786V10.6631H158.57V16ZM166.607 16.0879C167.359 16.0879 167.936 15.7461 168.229 15.165H168.312V16H169.532V8.59766H168.312V11.5127H168.229C167.95 10.9365 167.34 10.5752 166.607 10.5752C165.255 10.5752 164.42 11.6299 164.42 13.3291V13.3389C164.42 15.0283 165.27 16.0879 166.607 16.0879ZM166.988 15.0625C166.158 15.0625 165.655 14.4131 165.655 13.3389V13.3291C165.655 12.2549 166.163 11.6006 166.988 11.6006C167.813 11.6006 168.331 12.2598 168.331 13.3291V13.3389C168.331 14.4082 167.818 15.0625 166.988 15.0625ZM173.331 16H174.649L175.235 14.1787H177.843L178.434 16H179.752L177.252 8.9541H175.831L173.331 16ZM176.5 10.2627H176.583L177.53 13.207H175.553L176.5 10.2627ZM180.885 16H182.101V8.59766H180.885V16ZM183.688 16H184.903V8.59766H183.688V16Z" fill="black"/>
</svg>
