<svg width="41" height="16" viewBox="0 0 41 16" fill="none" xmlns="http://www.w3.org/2000/svg">
<path d="M0 4C0 1.79086 1.79086 0 4 0H37C39.2091 0 41 1.79086 41 4V12C41 14.2091 39.2091 16 37 16H4C1.79086 16 0 14.2091 0 12V4Z" fill="#F9A831"/>
<path d="M6.05078 11H7.23047V6.33594H8.92188V5.36328H4.35938V6.33594H6.05078V11ZM10.2812 11.0664C10.8438 11.0664 11.2969 10.8281 11.5156 10.4297H11.5859V11H12.7109V8.0625C12.7109 7.14453 12.0664 6.60547 10.9258 6.60547C9.84375 6.60547 9.13281 7.10547 9.04297 7.85938L9.03906 7.89453H10.0938L10.1016 7.87891C10.1914 7.625 10.4531 7.48047 10.8633 7.48047C11.332 7.48047 11.5859 7.69141 11.5859 8.0625V8.41797L10.5469 8.48047C9.47656 8.54297 8.87891 8.99609 8.87891 9.76953V9.77734C8.87891 10.5586 9.46094 11.0664 10.2812 11.0664ZM9.99219 9.70703V9.69922C9.99219 9.38672 10.2305 9.20312 10.7188 9.17188L11.5859 9.11719V9.43359C11.5859 9.88672 11.1914 10.2344 10.6641 10.2344C10.2695 10.2344 9.99219 10.0352 9.99219 9.70703ZM15.7266 12.5117C17.0273 12.5117 17.8516 11.875 17.8516 10.8672V6.69922H16.7109V7.40234H16.6562C16.4258 6.91797 15.9648 6.62891 15.375 6.62891C14.2734 6.62891 13.6055 7.48047 13.6055 8.74609V8.75391C13.6055 9.97656 14.2734 10.8125 15.3555 10.8125C15.9531 10.8125 16.4062 10.5664 16.6445 10.1133H16.7148V10.9141C16.7148 11.4141 16.3594 11.6992 15.75 11.6992C15.2422 11.6992 14.9453 11.5273 14.8828 11.2773L14.8789 11.2617H13.75V11.2812C13.8438 12.0117 14.5352 12.5117 15.7266 12.5117ZM15.7422 9.9375C15.125 9.9375 14.7734 9.45703 14.7734 8.75V8.74219C14.7734 8.03516 15.1289 7.55469 15.7422 7.55469C16.3555 7.55469 16.7266 8.03516 16.7266 8.74219V8.75C16.7266 9.45703 16.3594 9.9375 15.7422 9.9375ZM22.8398 11.0156C23.0586 11.0156 23.2695 10.9922 23.4102 10.9648V10.1172C23.3008 10.1289 23.2227 10.1367 23.0742 10.1367C22.6875 10.1367 22.5234 9.96484 22.5234 9.57812V7.55859H23.4102V6.69922H22.5234V5.67188H21.3711V6.69922H20.707V7.55859H21.3711V9.83984C21.3711 10.6758 21.793 11.0156 22.8398 11.0156ZM26.2188 11.0898C27.4766 11.0898 28.0312 10.3633 28.1641 9.82422L28.1719 9.78516H27.1094L27.0977 9.80859C27.0195 9.97266 26.7422 10.2383 26.2422 10.2383C25.6367 10.2383 25.2578 9.82812 25.2461 9.12109H28.207V8.76562C28.207 7.46484 27.4258 6.60547 26.1719 6.60547C24.918 6.60547 24.1172 7.48438 24.1172 8.85156V8.85547C24.1172 10.2344 24.9102 11.0898 26.2188 11.0898ZM26.1914 7.46094C26.6875 7.46094 27.043 7.78125 27.1133 8.40625H25.2578C25.3281 7.79688 25.6953 7.46094 26.1914 7.46094ZM28.6484 11H29.8516L30.6523 9.57812H30.7227L31.5273 11H32.7891L31.4258 8.82422L32.7812 6.69922H31.5391L30.7773 8.125H30.707L29.9453 6.69922H28.6367L29.9961 8.87109L28.6484 11ZM35.3945 11.0156C35.6133 11.0156 35.8242 10.9922 35.9648 10.9648V10.1172C35.8555 10.1289 35.7773 10.1367 35.6289 10.1367C35.2422 10.1367 35.0781 9.96484 35.0781 9.57812V7.55859H35.9648V6.69922H35.0781V5.67188H33.9258V6.69922H33.2617V7.55859H33.9258V9.83984C33.9258 10.6758 34.3477 11.0156 35.3945 11.0156Z" fill="white"/>
</svg>
