<svg width="59" height="20" viewBox="0 0 59 20" fill="none" xmlns="http://www.w3.org/2000/svg">
<rect x="0.5" y="0.5" width="58" height="19" rx="9.5" fill="white" stroke="#F9A831"/>
<rect x="2" y="2" width="27" height="16" rx="8" fill="#F9A831"/>
<path d="M35.1836 13H36.3633V11.2227H37.5078C38.6953 11.2227 39.4883 10.457 39.4883 9.29688V9.28906C39.4883 8.12891 38.6953 7.36328 37.5078 7.36328H35.1836V13ZM37.2188 8.29688C37.8945 8.29688 38.293 8.65234 38.293 9.29297V9.30078C38.293 9.94141 37.8945 10.3008 37.2188 10.3008H36.3633V8.29688H37.2188ZM41.043 8.03906C41.3945 8.03906 41.6836 7.75781 41.6836 7.40625C41.6836 7.05078 41.3945 6.76953 41.043 6.76953C40.6914 6.76953 40.3984 7.05078 40.3984 7.40625C40.3984 7.75781 40.6914 8.03906 41.043 8.03906ZM40.4688 13H41.6094V8.69922H40.4688V13ZM42.7578 13H43.8984V10.5117C43.8984 9.92969 44.2188 9.55078 44.7461 9.55078C45.2852 9.55078 45.5352 9.87109 45.5352 10.4766V13H46.6758V10.2188C46.6758 9.19141 46.1602 8.60547 45.2031 8.60547C44.5898 8.60547 44.1641 8.89844 43.9688 9.36328H43.8984V8.69922H42.7578V13ZM49.4922 13.0898C50.5938 13.0898 51.3789 12.5352 51.3789 11.6836V11.6797C51.3789 11.043 50.9766 10.6836 50.1172 10.5L49.4023 10.3477C48.957 10.25 48.7969 10.1172 48.7969 9.88672V9.88281C48.7969 9.59375 49.0781 9.41016 49.4727 9.41016C49.8984 9.41016 50.1523 9.625 50.2148 9.85547L50.2188 9.875H51.2773V9.85938C51.2305 9.16797 50.6055 8.60547 49.4766 8.60547C48.4023 8.60547 47.6836 9.14453 47.6836 9.95312V9.95703C47.6836 10.6016 48.0898 11.0039 48.9102 11.1797L49.6289 11.332C50.0664 11.4297 50.2383 11.5742 50.2383 11.8047V11.8125C50.2383 12.0977 49.9414 12.2852 49.5039 12.2852C49.0547 12.2852 48.793 12.0938 48.7031 11.8281L48.6953 11.8125H47.5742L47.5781 11.8281C47.6602 12.5664 48.3242 13.0898 49.4922 13.0898Z" fill="black"/>
<path d="M9.18359 13H12.8711V12.0273H10.3633V7.36328H9.18359V13ZM14.4102 8.03906C14.7617 8.03906 15.0508 7.75781 15.0508 7.40625C15.0508 7.05078 14.7617 6.76953 14.4102 6.76953C14.0586 6.76953 13.7656 7.05078 13.7656 7.40625C13.7656 7.75781 14.0586 8.03906 14.4102 8.03906ZM13.8359 13H14.9766V8.69922H13.8359V13ZM17.8359 13.0898C18.9375 13.0898 19.7227 12.5352 19.7227 11.6836V11.6797C19.7227 11.043 19.3203 10.6836 18.4609 10.5L17.7461 10.3477C17.3008 10.25 17.1406 10.1172 17.1406 9.88672V9.88281C17.1406 9.59375 17.4219 9.41016 17.8164 9.41016C18.2422 9.41016 18.4961 9.625 18.5586 9.85547L18.5625 9.875H19.6211V9.85938C19.5742 9.16797 18.9492 8.60547 17.8203 8.60547C16.7461 8.60547 16.0273 9.14453 16.0273 9.95312V9.95703C16.0273 10.6016 16.4336 11.0039 17.2539 11.1797L17.9727 11.332C18.4102 11.4297 18.582 11.5742 18.582 11.8047V11.8125C18.582 12.0977 18.2852 12.2852 17.8477 12.2852C17.3984 12.2852 17.1367 12.0938 17.0469 11.8281L17.0391 11.8125H15.918L15.9219 11.8281C16.0039 12.5664 16.668 13.0898 17.8359 13.0898ZM22.418 13.0156C22.6367 13.0156 22.8477 12.9922 22.9883 12.9648V12.1172C22.8789 12.1289 22.8008 12.1367 22.6523 12.1367C22.2656 12.1367 22.1016 11.9648 22.1016 11.5781V9.55859H22.9883V8.69922H22.1016V7.67188H20.9492V8.69922H20.2852V9.55859H20.9492V11.8398C20.9492 12.6758 21.3711 13.0156 22.418 13.0156Z" fill="white"/>
</svg>
