<svg width="61" height="19" viewBox="0 0 61 19" fill="none" xmlns="http://www.w3.org/2000/svg">
<path d="M1.54688 15H9.01562V13.0547H3.90625V10.2031H8.72656V8.39062H3.90625V5.67188H9.01562V3.72656H1.54688V15ZM10.6484 15H13.0547L14.6562 12.1562H14.7969L16.4062 15H18.9297L16.2031 10.6484L18.9141 6.39844H16.4297L14.9062 9.25H14.7656L13.2422 6.39844H10.625L13.3438 10.7422L10.6484 15ZM20.5703 17.8516H22.8516V13.625H22.9922C23.4297 14.5625 24.3906 15.1328 25.5703 15.1328C27.75 15.1328 29.0625 13.4688 29.0625 10.7031V10.6875C29.0625 7.94531 27.7188 6.25781 25.5703 6.25781C24.3516 6.25781 23.4375 6.80469 22.9922 7.72656H22.8516V6.39844H20.5703V17.8516ZM24.7891 13.2422C23.5938 13.2422 22.8281 12.2812 22.8281 10.7031V10.6875C22.8281 9.10938 23.5859 8.14844 24.7891 8.14844C26 8.14844 26.7422 9.10938 26.7422 10.6875V10.7031C26.7422 12.2812 25.9922 13.2422 24.7891 13.2422ZM31.0078 15H33.2891V3.10938H31.0078V15ZM39.4688 15.1797C42.1172 15.1797 43.7109 13.5078 43.7109 10.7031V10.6875C43.7109 7.90625 42.0938 6.21094 39.4688 6.21094C36.8438 6.21094 35.2266 7.91406 35.2266 10.6875V10.7031C35.2266 13.5 36.8203 15.1797 39.4688 15.1797ZM39.4688 13.3906C38.25 13.3906 37.5625 12.3984 37.5625 10.7031V10.6875C37.5625 9.00781 38.2578 8 39.4688 8C40.6719 8 41.375 9.00781 41.375 10.6875V10.7031C41.375 12.3984 40.6797 13.3906 39.4688 13.3906ZM45.5703 15H47.8516V10.1875C47.8516 8.96875 48.6719 8.22656 49.9688 8.22656C50.3203 8.22656 50.6719 8.28125 51.0156 8.35938V6.36719C50.7891 6.30469 50.4688 6.25781 50.1641 6.25781C49.0469 6.25781 48.2656 6.80469 47.9922 7.73438H47.8516V6.39844H45.5703V15ZM56.1172 15.1797C58.6328 15.1797 59.7422 13.7266 60.0078 12.6484L60.0234 12.5703H57.8984L57.875 12.6172C57.7188 12.9453 57.1641 13.4766 56.1641 13.4766C54.9531 13.4766 54.1953 12.6562 54.1719 11.2422H60.0938V10.5312C60.0938 7.92969 58.5312 6.21094 56.0234 6.21094C53.5156 6.21094 51.9141 7.96875 51.9141 10.7031V10.7109C51.9141 13.4688 53.5 15.1797 56.1172 15.1797ZM56.0625 7.92188C57.0547 7.92188 57.7656 8.5625 57.9062 9.8125H54.1953C54.3359 8.59375 55.0703 7.92188 56.0625 7.92188Z" fill="black"/>
</svg>
