<svg width="308" height="44" viewBox="0 0 308 44" fill="none" xmlns="http://www.w3.org/2000/svg">
<g filter="url(#filter0_d_724_3134)">
<rect x="4" y="2" width="300" height="36" rx="18" fill="white"/>
</g>
<path d="M49.3018 25H50.4639L52.7334 17.2139H52.8154L55.085 25H56.2471L58.9336 15.1357H57.6484L55.6865 23.1543H55.6045L53.3965 15.1357H52.1523L49.9443 23.1543H49.8623L47.9004 15.1357H46.6152L49.3018 25ZM60.7246 25H61.9141V20.6387C61.9141 19.3467 62.6592 18.5537 63.835 18.5537C65.0107 18.5537 65.5576 19.1895 65.5576 20.5156V25H66.7471V20.2285C66.7471 18.4785 65.8242 17.501 64.1699 17.501C63.083 17.501 62.3926 17.959 62.0234 18.7383H61.9141V14.7051H60.7246V25ZM71.9082 25.1299C73.6445 25.1299 74.6973 24.1455 74.9502 23.1475L74.9639 23.0928H73.7744L73.7471 23.1543C73.5488 23.5986 72.9336 24.0703 71.9355 24.0703C70.623 24.0703 69.7822 23.1816 69.748 21.6572H75.0527V21.1924C75.0527 18.9912 73.8359 17.501 71.833 17.501C69.8301 17.501 68.5312 19.0596 68.5312 21.3359V21.3428C68.5312 23.6533 69.8027 25.1299 71.9082 25.1299ZM71.8262 18.5605C72.9131 18.5605 73.7197 19.251 73.8428 20.707H69.7686C69.8984 19.3057 70.7324 18.5605 71.8262 18.5605ZM76.8984 25H78.0879V20.4336C78.0879 19.3535 78.8945 18.6357 80.0293 18.6357C80.2891 18.6357 80.5146 18.6631 80.7607 18.7041V17.5488C80.6445 17.5283 80.3916 17.501 80.166 17.501C79.168 17.501 78.4775 17.9521 78.1973 18.7246H78.0879V17.6309H76.8984V25ZM85.0332 25.1299C86.7695 25.1299 87.8223 24.1455 88.0752 23.1475L88.0889 23.0928H86.8994L86.8721 23.1543C86.6738 23.5986 86.0586 24.0703 85.0605 24.0703C83.748 24.0703 82.9072 23.1816 82.873 21.6572H88.1777V21.1924C88.1777 18.9912 86.9609 17.501 84.958 17.501C82.9551 17.501 81.6562 19.0596 81.6562 21.3359V21.3428C81.6562 23.6533 82.9277 25.1299 85.0332 25.1299ZM84.9512 18.5605C86.0381 18.5605 86.8447 19.251 86.9678 20.707H82.8936C83.0234 19.3057 83.8574 18.5605 84.9512 18.5605ZM96.5791 25.0547C96.8115 25.0547 97.0371 25.0273 97.2695 24.9863V23.9746C97.0508 23.9951 96.9346 24.002 96.7227 24.002C95.957 24.002 95.6562 23.6533 95.6562 22.7852V18.6152H97.2695V17.6309H95.6562V15.7236H94.4258V17.6309H93.2637V18.6152H94.4258V23.0859C94.4258 24.4941 95.0615 25.0547 96.5791 25.0547ZM101.966 25.1299C104.064 25.1299 105.363 23.6807 105.363 21.3223V21.3086C105.363 18.9434 104.064 17.501 101.966 17.501C99.8672 17.501 98.5684 18.9434 98.5684 21.3086V21.3223C98.5684 23.6807 99.8672 25.1299 101.966 25.1299ZM101.966 24.0771C100.571 24.0771 99.7852 23.0586 99.7852 21.3223V21.3086C99.7852 19.5654 100.571 18.5537 101.966 18.5537C103.36 18.5537 104.146 19.5654 104.146 21.3086V21.3223C104.146 23.0586 103.36 24.0771 101.966 24.0771ZM108.788 21.9512H109.984V21.5068C109.984 20.7891 110.23 20.4062 111.099 19.8936C111.974 19.3672 112.527 18.6084 112.527 17.542V17.5283C112.527 16.127 111.352 15.0605 109.629 15.0605C107.708 15.0605 106.724 16.2363 106.648 17.7061V17.7197L107.811 17.7129L107.824 17.7061C107.893 16.7354 108.549 16.127 109.581 16.127C110.6 16.127 111.256 16.749 111.256 17.5898V17.6035C111.256 18.3281 110.948 18.7588 110.155 19.2441C109.219 19.8047 108.781 20.4199 108.788 21.3223V21.9512ZM109.479 25.123C110.032 25.123 110.422 24.7266 110.422 24.1729C110.422 23.6123 110.032 23.2158 109.479 23.2158C108.925 23.2158 108.528 23.6123 108.528 24.1729C108.528 24.7266 108.925 25.123 109.479 25.123Z" fill="#B0B0B0"/>
<path d="M30.0482 23.0737L33 26.0248L32.0248 27L29.0737 24.0482C27.9757 24.9285 26.6099 25.4072 25.2026 25.4052C21.7788 25.4052 19 22.6265 19 19.2026C19 15.7788 21.7788 13 25.2026 13C28.6265 13 31.4052 15.7788 31.4052 19.2026C31.4072 20.6099 30.9285 21.9757 30.0482 23.0737ZM28.6657 22.5624C29.5404 21.6629 30.0289 20.4572 30.0269 19.2026C30.0269 16.5369 27.8677 14.3784 25.2026 14.3784C22.5369 14.3784 20.3784 16.5369 20.3784 19.2026C20.3784 21.8677 22.5369 24.0269 25.2026 24.0269C26.4572 24.0289 27.6629 23.5404 28.5624 22.6657L28.6657 22.5624Z" fill="black"/>
<defs>
<filter id="filter0_d_724_3134" x="0" y="0" width="308" height="44"  color-interpolation-filters="sRGB">
<feFlood flood-opacity="0" result="BackgroundImageFix"/>
<feColorMatrix in="SourceAlpha"  values="0 0 0 0 0 0 0 0 0 0 0 0 0 0 0 0 0 0 127 0" result="hardAlpha"/>
<feOffset dy="2"/>
<feGaussianBlur stdDeviation="2"/>
<feComposite in2="hardAlpha" operator="out"/>
<feColorMatrix  values="0 0 0 0 0 0 0 0 0 0 0 0 0 0 0 0 0 0 0.1 0"/>
<feBlend  in2="BackgroundImageFix" result="effect1_dropShadow_724_3134"/>
<feBlend  in="SourceGraphic" in2="effect1_dropShadow_724_3134" result="shape"/>
</filter>
</defs>
</svg>
